solid ascii
  facet normal 5.233407e-002 -9.986296e-001 0.000000e+000
    outer loop
      vertex   -1.055347e+001 1.750000e+002 0.000000e+000
      vertex   -1.034442e+001 1.750110e+002 0.000000e+000
      vertex   -1.055347e+001 1.750000e+002 3.000000e+000
    endloop
  endfacet
  facet normal 5.220712e-002 -9.962071e-001 -4.336809e-019
    outer loop
      vertex   -1.055347e+001 1.750000e+002 3.000000e+000
      vertex   -1.034442e+001 1.750110e+002 0.000000e+000
      vertex   -1.034442e+001 1.750110e+002 3.000000e+000
    endloop
  endfacet
  facet normal 1.088864e-002 -6.875485e-002 0.000000e+000
    outer loop
      vertex   -1.034442e+001 1.750110e+002 3.000000e+000
      vertex   -1.034442e+001 1.750110e+002 0.000000e+000
      vertex   -1.013765e+001 1.750437e+002 0.000000e+000
    endloop
  endfacet
  facet normal 1.560402e-001 -9.852947e-001 0.000000e+000
    outer loop
      vertex   -1.034442e+001 1.750110e+002 3.000000e+000
      vertex   -1.013765e+001 1.750437e+002 0.000000e+000
      vertex   -1.013765e+001 1.750437e+002 3.000000e+000
    endloop
  endfacet
  facet normal 1.801751e-002 -6.723996e-002 0.000000e+000
    outer loop
      vertex   -1.013765e+001 1.750437e+002 3.000000e+000
      vertex   -1.013765e+001 1.750437e+002 0.000000e+000
      vertex   -9.935439e+000 1.750979e+002 0.000000e+000
    endloop
  endfacet
  facet normal 2.581994e-001 -9.635804e-001 0.000000e+000
    outer loop
      vertex   -1.013765e+001 1.750437e+002 3.000000e+000
      vertex   -9.935439e+000 1.750979e+002 0.000000e+000
      vertex   -9.935439e+000 1.750979e+002 3.000000e+000
    endloop
  endfacet
  facet normal 2.494849e-002 -6.498840e-002 0.000000e+000
    outer loop
      vertex   -9.935439e+000 1.750979e+002 3.000000e+000
      vertex   -9.935439e+000 1.750979e+002 0.000000e+000
      vertex   -9.740000e+000 1.751729e+002 0.000000e+000
    endloop
  endfacet
  facet normal 3.575207e-001 -9.313071e-001 0.000000e+000
    outer loop
      vertex   -9.935439e+000 1.750979e+002 3.000000e+000
      vertex   -9.740000e+000 1.751729e+002 0.000000e+000
      vertex   -9.740000e+000 1.751729e+002 3.000000e+000
    endloop
  endfacet
  facet normal 3.160040e-002 -6.202492e-002 0.000000e+000
    outer loop
      vertex   -9.740000e+000 1.751729e+002 3.000000e+000
      vertex   -9.740000e+000 1.751729e+002 0.000000e+000
      vertex   -9.553473e+000 1.752679e+002 0.000000e+000
    endloop
  endfacet
  facet normal 4.528565e-001 -8.888618e-001 0.000000e+000
    outer loop
      vertex   -9.740000e+000 1.751729e+002 3.000000e+000
      vertex   -9.553473e+000 1.752679e+002 0.000000e+000
      vertex   -9.553473e+000 1.752679e+002 3.000000e+000
    endloop
  endfacet
  facet normal 3.791743e-002 -5.838152e-002 0.000000e+000
    outer loop
      vertex   -9.553473e+000 1.752679e+002 3.000000e+000
      vertex   -9.553473e+000 1.752679e+002 0.000000e+000
      vertex   -9.377902e+000 1.753820e+002 0.000000e+000
    endloop
  endfacet
  facet normal 5.433584e-001 -8.366095e-001 0.000000e+000
    outer loop
      vertex   -9.553473e+000 1.752679e+002 3.000000e+000
      vertex   -9.377902e+000 1.753820e+002 0.000000e+000
      vertex   -9.377902e+000 1.753820e+002 3.000000e+000
    endloop
  endfacet
  facet normal 6.293218e-001 -7.771448e-001 0.000000e+000
    outer loop
      vertex   -9.377902e+000 1.753820e+002 3.000000e+000
      vertex   -9.377902e+000 1.753820e+002 0.000000e+000
      vertex   -9.215212e+000 1.755137e+002 3.000000e+000
    endloop
  endfacet
  facet normal 4.380826e-002 -5.409850e-002 0.000000e+000
    outer loop
      vertex   -9.215212e+000 1.755137e+002 3.000000e+000
      vertex   -9.377902e+000 1.753820e+002 0.000000e+000
      vertex   -9.215212e+000 1.755137e+002 0.000000e+000
    endloop
  endfacet
  facet normal 7.071000e-001 -7.071136e-001 0.000000e+000
    outer loop
      vertex   -9.215212e+000 1.755137e+002 3.000000e+000
      vertex   -9.215212e+000 1.755137e+002 0.000000e+000
      vertex   -9.067183e+000 1.756617e+002 3.000000e+000
    endloop
  endfacet
  facet normal 4.922215e-002 -4.922310e-002 0.000000e+000
    outer loop
      vertex   -9.067183e+000 1.756617e+002 3.000000e+000
      vertex   -9.215212e+000 1.755137e+002 0.000000e+000
      vertex   -9.067183e+000 1.756617e+002 0.000000e+000
    endloop
  endfacet
  facet normal 7.771430e-001 -6.293240e-001 0.000000e+000
    outer loop
      vertex   -9.067183e+000 1.756617e+002 3.000000e+000
      vertex   -9.067183e+000 1.756617e+002 0.000000e+000
      vertex   -8.935439e+000 1.758244e+002 3.000000e+000
    endloop
  endfacet
  facet normal 5.409819e-002 -4.380827e-002 0.000000e+000
    outer loop
      vertex   -8.935439e+000 1.758244e+002 3.000000e+000
      vertex   -9.067183e+000 1.756617e+002 0.000000e+000
      vertex   -8.935439e+000 1.758244e+002 0.000000e+000
    endloop
  endfacet
  facet normal 5.838058e-002 -3.791332e-002 0.000000e+000
    outer loop
      vertex   -8.935439e+000 1.758244e+002 3.000000e+000
      vertex   -8.935439e+000 1.758244e+002 0.000000e+000
      vertex   -8.821423e+000 1.760000e+002 0.000000e+000
    endloop
  endfacet
  facet normal 8.366327e-001 -5.433232e-001 -6.938894e-018
    outer loop
      vertex   -8.935439e+000 1.758244e+002 3.000000e+000
      vertex   -8.821423e+000 1.760000e+002 0.000000e+000
      vertex   -8.821423e+000 1.760000e+002 3.000000e+000
    endloop
  endfacet
  facet normal 6.202366e-002 -3.160326e-002 0.000000e+000
    outer loop
      vertex   -8.821423e+000 1.760000e+002 3.000000e+000
      vertex   -8.821423e+000 1.760000e+002 0.000000e+000
      vertex   -8.726382e+000 1.761865e+002 0.000000e+000
    endloop
  endfacet
  facet normal 8.888415e-001 -4.528963e-001 -3.469447e-018
    outer loop
      vertex   -8.821423e+000 1.760000e+002 3.000000e+000
      vertex   -8.726382e+000 1.761865e+002 0.000000e+000
      vertex   -8.726382e+000 1.761865e+002 3.000000e+000
    endloop
  endfacet
  facet normal 6.499188e-002 -2.494689e-002 0.000000e+000
    outer loop
      vertex   -8.726382e+000 1.761865e+002 3.000000e+000
      vertex   -8.726382e+000 1.761865e+002 0.000000e+000
      vertex   -8.651360e+000 1.763820e+002 0.000000e+000
    endloop
  endfacet
  facet normal 9.313210e-001 -3.574841e-001 3.469447e-018
    outer loop
      vertex   -8.726382e+000 1.761865e+002 3.000000e+000
      vertex   -8.651360e+000 1.763820e+002 0.000000e+000
      vertex   -8.651360e+000 1.763820e+002 3.000000e+000
    endloop
  endfacet
  facet normal 6.723965e-002 -1.801687e-002 0.000000e+000
    outer loop
      vertex   -8.651360e+000 1.763820e+002 3.000000e+000
      vertex   -8.651360e+000 1.763820e+002 0.000000e+000
      vertex   -8.597178e+000 1.765842e+002 0.000000e+000
    endloop
  endfacet
  facet normal 9.635825e-001 -2.581920e-001 -3.469447e-018
    outer loop
      vertex   -8.651360e+000 1.763820e+002 3.000000e+000
      vertex   -8.597178e+000 1.765842e+002 0.000000e+000
      vertex   -8.597178e+000 1.765842e+002 3.000000e+000
    endloop
  endfacet
  facet normal 6.875169e-002 -1.088960e-002 0.000000e+000
    outer loop
      vertex   -8.597178e+000 1.765842e+002 3.000000e+000
      vertex   -8.597178e+000 1.765842e+002 0.000000e+000
      vertex   -8.564429e+000 1.767909e+002 0.000000e+000
    endloop
  endfacet
  facet normal 9.852917e-001 -1.560606e-001 0.000000e+000
    outer loop
      vertex   -8.597178e+000 1.765842e+002 3.000000e+000
      vertex   -8.564429e+000 1.767909e+002 0.000000e+000
      vertex   -8.564429e+000 1.767909e+002 3.000000e+000
    endloop
  endfacet
  facet normal 6.951784e-002 -3.643395e-003 0.000000e+000
    outer loop
      vertex   -8.564429e+000 1.767909e+002 3.000000e+000
      vertex   -8.564429e+000 1.767909e+002 0.000000e+000
      vertex   -8.553473e+000 1.770000e+002 0.000000e+000
    endloop
  endfacet
  facet normal 9.962068e-001 -5.221070e-002 0.000000e+000
    outer loop
      vertex   -8.564429e+000 1.767909e+002 3.000000e+000
      vertex   -8.553473e+000 1.770000e+002 0.000000e+000
      vertex   -8.553473e+000 1.770000e+002 3.000000e+000
    endloop
  endfacet
  facet normal 1.000000e+000 -0.000000e+000 0.000000e+000
    outer loop
      vertex   -8.553473e+000 1.770000e+002 3.000000e+000
      vertex   -8.553473e+000 1.770000e+002 0.000000e+000
      vertex   -8.553473e+000 2.075000e+002 3.000000e+000
    endloop
  endfacet
  facet normal 9.951974e-001 0.000000e+000 0.000000e+000
    outer loop
      vertex   -8.553473e+000 2.075000e+002 3.000000e+000
      vertex   -8.553473e+000 1.770000e+002 0.000000e+000
      vertex   -8.553473e+000 2.075000e+002 0.000000e+000
    endloop
  endfacet
  facet normal 1.000000e+000 -0.000000e+000 0.000000e+000
    outer loop
      vertex   -8.553473e+000 2.075000e+002 3.000000e+000
      vertex   -8.553473e+000 2.075000e+002 0.000000e+000
      vertex   -8.553473e+000 2.380000e+002 3.000000e+000
    endloop
  endfacet
  facet normal 9.951974e-001 0.000000e+000 0.000000e+000
    outer loop
      vertex   -8.553473e+000 2.380000e+002 3.000000e+000
      vertex   -8.553473e+000 2.075000e+002 0.000000e+000
      vertex   -8.553473e+000 2.380000e+002 0.000000e+000
    endloop
  endfacet
  facet normal 0.000000e+000 -0.000000e+000 -3.010549e-001
    outer loop
      vertex   -6.960721e+001 2.200000e+002 0.000000e+000
      vertex   -6.960721e+001 2.090000e+002 0.000000e+000
      vertex   -7.355347e+001 2.075000e+002 0.000000e+000
    endloop
  endfacet
  facet normal 0.000000e+000 0.000000e+000 -1.557073e-001
    outer loop
      vertex   -7.355347e+001 2.075000e+002 0.000000e+000
      vertex   -6.960721e+001 2.090000e+002 0.000000e+000
      vertex   -6.640721e+001 2.090000e+002 0.000000e+000
    endloop
  endfacet
  facet normal 0.000000e+000 0.000000e+000 -2.054234e-001
    outer loop
      vertex   -7.355347e+001 2.075000e+002 0.000000e+000
      vertex   -6.640721e+001 2.090000e+002 0.000000e+000
      vertex   -4.105347e+001 2.075000e+002 0.000000e+000
    endloop
  endfacet
  facet normal 0.000000e+000 0.000000e+000 -9.982545e-001
    outer loop
      vertex   -4.105347e+001 2.075000e+002 0.000000e+000
      vertex   -6.640721e+001 2.090000e+002 0.000000e+000
      vertex   -4.105347e+001 2.090000e+002 0.000000e+000
    endloop
  endfacet
  facet normal 0.000000e+000 0.000000e+000 -9.982545e-001
    outer loop
      vertex   -4.105347e+001 2.075000e+002 0.000000e+000
      vertex   -4.105347e+001 2.090000e+002 0.000000e+000
      vertex   -1.569974e+001 2.090000e+002 0.000000e+000
    endloop
  endfacet
  facet normal 0.000000e+000 0.000000e+000 -1.000000e+000
    outer loop
      vertex   -1.569974e+001 2.090000e+002 0.000000e+000
      vertex   -4.105347e+001 2.090000e+002 0.000000e+000
      vertex   -1.569974e+001 2.200000e+002 0.000000e+000
    endloop
  endfacet
  facet normal -0.000000e+000 0.000000e+000 -8.806583e-001
    outer loop
      vertex   -1.569974e+001 2.200000e+002 0.000000e+000
      vertex   -4.105347e+001 2.090000e+002 0.000000e+000
      vertex   -4.105347e+001 2.400000e+002 0.000000e+000
    endloop
  endfacet
  facet normal 0.000000e+000 0.000000e+000 -9.146932e-001
    outer loop
      vertex   -1.569974e+001 2.200000e+002 0.000000e+000
      vertex   -4.105347e+001 2.400000e+002 0.000000e+000
      vertex   -1.055347e+001 2.400000e+002 0.000000e+000
    endloop
  endfacet
  facet normal 0.000000e+000 0.000000e+000 -1.000000e+000
    outer loop
      vertex   -6.640721e+001 2.090000e+002 0.000000e+000
      vertex   -6.640721e+001 2.200000e+002 0.000000e+000
      vertex   -4.105347e+001 2.090000e+002 0.000000e+000
    endloop
  endfacet
  facet normal 0.000000e+000 0.000000e+000 -9.173789e-001
    outer loop
      vertex   -4.105347e+001 2.090000e+002 0.000000e+000
      vertex   -6.640721e+001 2.200000e+002 0.000000e+000
      vertex   -4.105347e+001 2.400000e+002 0.000000e+000
    endloop
  endfacet
  facet normal 0.000000e+000 0.000000e+000 -9.768006e-001
    outer loop
      vertex   -6.960721e+001 2.200000e+002 0.000000e+000
      vertex   -7.355347e+001 2.380000e+002 0.000000e+000
      vertex   -6.640721e+001 2.200000e+002 0.000000e+000
    endloop
  endfacet
  facet normal 0.000000e+000 0.000000e+000 -1.257467e-001
    outer loop
      vertex   -6.640721e+001 2.200000e+002 0.000000e+000
      vertex   -7.355347e+001 2.380000e+002 0.000000e+000
      vertex   -7.155347e+001 2.400000e+002 0.000000e+000
    endloop
  endfacet
  facet normal 0.000000e+000 0.000000e+000 -9.146932e-001
    outer loop
      vertex   -6.640721e+001 2.200000e+002 0.000000e+000
      vertex   -7.155347e+001 2.400000e+002 0.000000e+000
      vertex   -4.105347e+001 2.400000e+002 0.000000e+000
    endloop
  endfacet
  facet normal 0.000000e+000 0.000000e+000 -2.141508e-001
    outer loop
      vertex   -7.355347e+001 2.380000e+002 0.000000e+000
      vertex   -6.960721e+001 2.200000e+002 0.000000e+000
      vertex   -7.355347e+001 2.075000e+002 0.000000e+000
    endloop
  endfacet
  facet normal -0.000000e+000 0.000000e+000 -6.968411e-001
    outer loop
      vertex   -6.640721e+001 1.800000e+002 0.000000e+000
      vertex   -7.155347e+001 1.750000e+002 0.000000e+000
      vertex   -6.960721e+001 1.800000e+002 0.000000e+000
    endloop
  endfacet
  facet normal 0.000000e+000 0.000000e+000 -5.223322e-001
    outer loop
      vertex   -6.960721e+001 1.800000e+002 0.000000e+000
      vertex   -7.155347e+001 1.750000e+002 0.000000e+000
      vertex   -7.355347e+001 1.770000e+002 0.000000e+000
    endloop
  endfacet
  facet normal -0.000000e+000 0.000000e+000 -7.960808e-001
    outer loop
      vertex   -6.960721e+001 1.800000e+002 0.000000e+000
      vertex   -7.355347e+001 1.770000e+002 0.000000e+000
      vertex   -6.960721e+001 1.910000e+002 0.000000e+000
    endloop
  endfacet
  facet normal -0.000000e+000 0.000000e+000 -4.877456e-001
    outer loop
      vertex   -6.960721e+001 1.910000e+002 0.000000e+000
      vertex   -7.355347e+001 1.770000e+002 0.000000e+000
      vertex   -7.355347e+001 2.075000e+002 0.000000e+000
    endloop
  endfacet
  facet normal 0.000000e+000 0.000000e+000 -9.725707e-001
    outer loop
      vertex   -6.960721e+001 1.910000e+002 0.000000e+000
      vertex   -7.355347e+001 2.075000e+002 0.000000e+000
      vertex   -6.640721e+001 1.910000e+002 0.000000e+000
    endloop
  endfacet
  facet normal 0.000000e+000 0.000000e+000 -9.858853e-001
    outer loop
      vertex   -6.640721e+001 1.910000e+002 0.000000e+000
      vertex   -7.355347e+001 2.075000e+002 0.000000e+000
      vertex   -4.105347e+001 2.075000e+002 0.000000e+000
    endloop
  endfacet
  facet normal 0.000000e+000 0.000000e+000 -8.339810e-001
    outer loop
      vertex   -6.640721e+001 1.910000e+002 0.000000e+000
      vertex   -4.105347e+001 2.075000e+002 0.000000e+000
      vertex   -4.105347e+001 1.800000e+002 0.000000e+000
    endloop
  endfacet
  facet normal 0.000000e+000 0.000000e+000 -9.173789e-001
    outer loop
      vertex   -4.105347e+001 1.800000e+002 0.000000e+000
      vertex   -4.105347e+001 2.075000e+002 0.000000e+000
      vertex   -1.569974e+001 1.910000e+002 0.000000e+000
    endloop
  endfacet
  facet normal 0.000000e+000 0.000000e+000 -3.980150e-001
    outer loop
      vertex   -4.105347e+001 1.800000e+002 0.000000e+000
      vertex   -1.569974e+001 1.910000e+002 0.000000e+000
      vertex   -1.569974e+001 1.800000e+002 0.000000e+000
    endloop
  endfacet
  facet normal 0.000000e+000 0.000000e+000 -9.173789e-001
    outer loop
      vertex   -6.640721e+001 1.910000e+002 0.000000e+000
      vertex   -4.105347e+001 1.800000e+002 0.000000e+000
      vertex   -6.640721e+001 1.800000e+002 0.000000e+000
    endloop
  endfacet
  facet normal 0.000000e+000 0.000000e+000 -1.934830e-001
    outer loop
      vertex   -6.640721e+001 1.800000e+002 0.000000e+000
      vertex   -4.105347e+001 1.800000e+002 0.000000e+000
      vertex   -4.105347e+001 1.750000e+002 0.000000e+000
    endloop
  endfacet
  facet normal 0.000000e+000 -0.000000e+000 -8.224443e-001
    outer loop
      vertex   -6.640721e+001 1.800000e+002 0.000000e+000
      vertex   -4.105347e+001 1.750000e+002 0.000000e+000
      vertex   -7.155347e+001 1.750000e+002 0.000000e+000
    endloop
  endfacet
  facet normal 0.000000e+000 0.000000e+000 -5.905960e-002
    outer loop
      vertex   -4.105347e+001 2.075000e+002 0.000000e+000
      vertex   -1.569974e+001 2.090000e+002 0.000000e+000
      vertex   -8.553473e+000 2.075000e+002 0.000000e+000
    endloop
  endfacet
  facet normal 0.000000e+000 0.000000e+000 -1.557076e-001
    outer loop
      vertex   -8.553473e+000 2.075000e+002 0.000000e+000
      vertex   -1.569974e+001 2.090000e+002 0.000000e+000
      vertex   -1.249973e+001 2.090000e+002 0.000000e+000
    endloop
  endfacet
  facet normal 0.000000e+000 0.000000e+000 -7.844184e-001
    outer loop
      vertex   -8.553473e+000 2.075000e+002 0.000000e+000
      vertex   -1.249973e+001 2.090000e+002 0.000000e+000
      vertex   -1.249973e+001 2.200000e+002 0.000000e+000
    endloop
  endfacet
  facet normal 0.000000e+000 0.000000e+000 -3.010546e-001
    outer loop
      vertex   -8.553473e+000 2.075000e+002 0.000000e+000
      vertex   -1.249973e+001 2.200000e+002 0.000000e+000
      vertex   -8.553473e+000 2.380000e+002 0.000000e+000
    endloop
  endfacet
  facet normal 0.000000e+000 0.000000e+000 -1.613988e-001
    outer loop
      vertex   -8.553473e+000 2.380000e+002 0.000000e+000
      vertex   -1.249973e+001 2.200000e+002 0.000000e+000
      vertex   -1.569974e+001 2.200000e+002 0.000000e+000
    endloop
  endfacet
  facet normal -0.000000e+000 0.000000e+000 -9.181271e-001
    outer loop
      vertex   -8.553473e+000 2.380000e+002 0.000000e+000
      vertex   -1.569974e+001 2.200000e+002 0.000000e+000
      vertex   -1.055347e+001 2.400000e+002 0.000000e+000
    endloop
  endfacet
  facet normal -0.000000e+000 -0.000000e+000 -9.318902e-001
    outer loop
      vertex   -1.249973e+001 1.800000e+002 0.000000e+000
      vertex   -1.055347e+001 1.750000e+002 0.000000e+000
      vertex   -1.569974e+001 1.800000e+002 0.000000e+000
    endloop
  endfacet
  facet normal 0.000000e+000 -0.000000e+000 -8.224443e-001
    outer loop
      vertex   -1.569974e+001 1.800000e+002 0.000000e+000
      vertex   -1.055347e+001 1.750000e+002 0.000000e+000
      vertex   -4.105347e+001 1.750000e+002 0.000000e+000
    endloop
  endfacet
  facet normal -0.000000e+000 0.000000e+000 -1.934830e-001
    outer loop
      vertex   -1.569974e+001 1.800000e+002 0.000000e+000
      vertex   -4.105347e+001 1.750000e+002 0.000000e+000
      vertex   -4.105347e+001 1.800000e+002 0.000000e+000
    endloop
  endfacet
  facet normal 0.000000e+000 0.000000e+000 -9.154422e-001
    outer loop
      vertex   -1.055347e+001 1.750000e+002 0.000000e+000
      vertex   -1.249973e+001 1.800000e+002 0.000000e+000
      vertex   -8.553473e+000 1.770000e+002 0.000000e+000
    endloop
  endfacet
  facet normal 0.000000e+000 0.000000e+000 -6.020320e-001
    outer loop
      vertex   -8.553473e+000 1.770000e+002 0.000000e+000
      vertex   -1.249973e+001 1.800000e+002 0.000000e+000
      vertex   -1.249973e+001 1.910000e+002 0.000000e+000
    endloop
  endfacet
  facet normal 0.000000e+000 0.000000e+000 -2.713038e-001
    outer loop
      vertex   -8.553473e+000 1.770000e+002 0.000000e+000
      vertex   -1.249973e+001 1.910000e+002 0.000000e+000
      vertex   -8.553473e+000 2.075000e+002 0.000000e+000
    endloop
  endfacet
  facet normal 0.000000e+000 0.000000e+000 -1.730835e-001
    outer loop
      vertex   -8.553473e+000 2.075000e+002 0.000000e+000
      vertex   -1.249973e+001 1.910000e+002 0.000000e+000
      vertex   -1.569974e+001 1.910000e+002 0.000000e+000
    endloop
  endfacet
  facet normal -0.000000e+000 0.000000e+000 -9.176314e-001
    outer loop
      vertex   -8.553473e+000 2.075000e+002 0.000000e+000
      vertex   -1.569974e+001 1.910000e+002 0.000000e+000
      vertex   -4.105347e+001 2.075000e+002 0.000000e+000
    endloop
  endfacet
  facet normal -0.000000e+000 0.000000e+000 -1.045324e-001
    outer loop
      vertex   -8.564429e+000 1.767909e+002 0.000000e+000
      vertex   -8.597178e+000 1.765842e+002 0.000000e+000
      vertex   -8.553473e+000 1.770000e+002 0.000000e+000
    endloop
  endfacet
  facet normal 0.000000e+000 0.000000e+000 -5.233591e-002
    outer loop
      vertex   -8.553473e+000 1.770000e+002 0.000000e+000
      vertex   -8.597178e+000 1.765842e+002 0.000000e+000
      vertex   -8.651360e+000 1.763820e+002 0.000000e+000
    endloop
  endfacet
  facet normal 0.000000e+000 0.000000e+000 -5.233398e-002
    outer loop
      vertex   -8.553473e+000 1.770000e+002 0.000000e+000
      vertex   -8.651360e+000 1.763820e+002 0.000000e+000
      vertex   -8.726382e+000 1.761865e+002 0.000000e+000
    endloop
  endfacet
  facet normal -0.000000e+000 0.000000e+000 -2.588269e-001
    outer loop
      vertex   -8.726382e+000 1.761865e+002 0.000000e+000
      vertex   -8.821423e+000 1.760000e+002 0.000000e+000
      vertex   -8.553473e+000 1.770000e+002 0.000000e+000
    endloop
  endfacet
  facet normal 0.000000e+000 0.000000e+000 -5.233631e-002
    outer loop
      vertex   -8.553473e+000 1.770000e+002 0.000000e+000
      vertex   -8.821423e+000 1.760000e+002 0.000000e+000
      vertex   -8.935439e+000 1.758244e+002 0.000000e+000
    endloop
  endfacet
  facet normal 0.000000e+000 0.000000e+000 -5.233629e-002
    outer loop
      vertex   -8.553473e+000 1.770000e+002 0.000000e+000
      vertex   -8.935439e+000 1.758244e+002 0.000000e+000
      vertex   -9.067183e+000 1.756617e+002 0.000000e+000
    endloop
  endfacet
  facet normal -0.000000e+000 0.000000e+000 -4.067441e-001
    outer loop
      vertex   -9.067183e+000 1.756617e+002 0.000000e+000
      vertex   -9.215212e+000 1.755137e+002 0.000000e+000
      vertex   -8.553473e+000 1.770000e+002 0.000000e+000
    endloop
  endfacet
  facet normal 0.000000e+000 0.000000e+000 -5.233564e-002
    outer loop
      vertex   -8.553473e+000 1.770000e+002 0.000000e+000
      vertex   -9.215212e+000 1.755137e+002 0.000000e+000
      vertex   -9.377902e+000 1.753820e+002 0.000000e+000
    endloop
  endfacet
  facet normal 0.000000e+000 0.000000e+000 -5.233292e-002
    outer loop
      vertex   -8.553473e+000 1.770000e+002 0.000000e+000
      vertex   -9.377902e+000 1.753820e+002 0.000000e+000
      vertex   -9.553473e+000 1.752679e+002 0.000000e+000
    endloop
  endfacet
  facet normal -0.000000e+000 0.000000e+000 -5.446709e-001
    outer loop
      vertex   -9.553473e+000 1.752679e+002 0.000000e+000
      vertex   -9.740000e+000 1.751729e+002 0.000000e+000
      vertex   -8.553473e+000 1.770000e+002 0.000000e+000
    endloop
  endfacet
  facet normal 0.000000e+000 0.000000e+000 -5.233461e-002
    outer loop
      vertex   -8.553473e+000 1.770000e+002 0.000000e+000
      vertex   -9.740000e+000 1.751729e+002 0.000000e+000
      vertex   -9.935439e+000 1.750979e+002 0.000000e+000
    endloop
  endfacet
  facet normal 0.000000e+000 0.000000e+000 -5.233543e-002
    outer loop
      vertex   -8.553473e+000 1.770000e+002 0.000000e+000
      vertex   -9.935439e+000 1.750979e+002 0.000000e+000
      vertex   -1.013765e+001 1.750437e+002 0.000000e+000
    endloop
  endfacet
  facet normal -0.000000e+000 0.000000e+000 -6.691423e-001
    outer loop
      vertex   -1.013765e+001 1.750437e+002 0.000000e+000
      vertex   -1.034442e+001 1.750110e+002 0.000000e+000
      vertex   -8.553473e+000 1.770000e+002 0.000000e+000
    endloop
  endfacet
  facet normal 0.000000e+000 0.000000e+000 -5.233604e-002
    outer loop
      vertex   -8.553473e+000 1.770000e+002 0.000000e+000
      vertex   -1.034442e+001 1.750110e+002 0.000000e+000
      vertex   -1.055347e+001 1.750000e+002 0.000000e+000
    endloop
  endfacet
  facet normal 0.000000e+000 0.000000e+000 -6.691313e-001
    outer loop
      vertex   -7.155347e+001 1.750000e+002 0.000000e+000
      vertex   -7.176253e+001 1.750110e+002 0.000000e+000
      vertex   -7.355347e+001 1.770000e+002 0.000000e+000
    endloop
  endfacet
  facet normal 0.000000e+000 0.000000e+000 -5.233831e-002
    outer loop
      vertex   -7.355347e+001 1.770000e+002 0.000000e+000
      vertex   -7.176253e+001 1.750110e+002 0.000000e+000
      vertex   -7.196930e+001 1.750437e+002 0.000000e+000
    endloop
  endfacet
  facet normal 0.000000e+000 0.000000e+000 -5.233517e-002
    outer loop
      vertex   -7.355347e+001 1.770000e+002 0.000000e+000
      vertex   -7.196930e+001 1.750437e+002 0.000000e+000
      vertex   -7.217151e+001 1.750979e+002 0.000000e+000
    endloop
  endfacet
  facet normal 0.000000e+000 0.000000e+000 -5.446128e-001
    outer loop
      vertex   -7.217151e+001 1.750979e+002 0.000000e+000
      vertex   -7.236694e+001 1.751729e+002 0.000000e+000
      vertex   -7.355347e+001 1.770000e+002 0.000000e+000
    endloop
  endfacet
  facet normal 0.000000e+000 0.000000e+000 -5.233972e-002
    outer loop
      vertex   -7.355347e+001 1.770000e+002 0.000000e+000
      vertex   -7.236694e+001 1.751729e+002 0.000000e+000
      vertex   -7.255347e+001 1.752679e+002 0.000000e+000
    endloop
  endfacet
  facet normal 0.000000e+000 0.000000e+000 -5.233152e-002
    outer loop
      vertex   -7.355347e+001 1.770000e+002 0.000000e+000
      vertex   -7.255347e+001 1.752679e+002 0.000000e+000
      vertex   -7.272904e+001 1.753820e+002 0.000000e+000
    endloop
  endfacet
  facet normal 0.000000e+000 0.000000e+000 -4.067294e-001
    outer loop
      vertex   -7.272904e+001 1.753820e+002 0.000000e+000
      vertex   -7.289173e+001 1.755137e+002 0.000000e+000
      vertex   -7.355347e+001 1.770000e+002 0.000000e+000
    endloop
  endfacet
  facet normal 0.000000e+000 0.000000e+000 -5.233935e-002
    outer loop
      vertex   -7.355347e+001 1.770000e+002 0.000000e+000
      vertex   -7.289173e+001 1.755137e+002 0.000000e+000
      vertex   -7.303976e+001 1.756617e+002 0.000000e+000
    endloop
  endfacet
  facet normal 0.000000e+000 0.000000e+000 -5.233641e-002
    outer loop
      vertex   -7.355347e+001 1.770000e+002 0.000000e+000
      vertex   -7.303976e+001 1.756617e+002 0.000000e+000
      vertex   -7.317151e+001 1.758244e+002 0.000000e+000
    endloop
  endfacet
  facet normal 0.000000e+000 0.000000e+000 -2.588137e-001
    outer loop
      vertex   -7.317151e+001 1.758244e+002 0.000000e+000
      vertex   -7.328552e+001 1.760000e+002 0.000000e+000
      vertex   -7.355347e+001 1.770000e+002 0.000000e+000
    endloop
  endfacet
  facet normal 0.000000e+000 0.000000e+000 -5.233523e-002
    outer loop
      vertex   -7.355347e+001 1.770000e+002 0.000000e+000
      vertex   -7.328552e+001 1.760000e+002 0.000000e+000
      vertex   -7.338056e+001 1.761865e+002 0.000000e+000
    endloop
  endfacet
  facet normal 0.000000e+000 0.000000e+000 -5.234035e-002
    outer loop
      vertex   -7.355347e+001 1.770000e+002 0.000000e+000
      vertex   -7.338056e+001 1.761865e+002 0.000000e+000
      vertex   -7.345559e+001 1.763820e+002 0.000000e+000
    endloop
  endfacet
  facet normal 0.000000e+000 0.000000e+000 -1.045041e-001
    outer loop
      vertex   -7.345559e+001 1.763820e+002 0.000000e+000
      vertex   -7.350977e+001 1.765842e+002 0.000000e+000
      vertex   -7.355347e+001 1.770000e+002 0.000000e+000
    endloop
  endfacet
  facet normal 0.000000e+000 0.000000e+000 -5.234982e-002
    outer loop
      vertex   -7.355347e+001 1.770000e+002 0.000000e+000
      vertex   -7.350977e+001 1.765842e+002 0.000000e+000
      vertex   -7.354252e+001 1.767909e+002 0.000000e+000
    endloop
  endfacet
  facet normal 0.000000e+000 0.000000e+000 -6.691327e-001
    outer loop
      vertex   -7.355347e+001 2.380000e+002 0.000000e+000
      vertex   -7.354252e+001 2.382091e+002 0.000000e+000
      vertex   -7.155347e+001 2.400000e+002 0.000000e+000
    endloop
  endfacet
  facet normal 0.000000e+000 0.000000e+000 -5.233193e-002
    outer loop
      vertex   -7.155347e+001 2.400000e+002 0.000000e+000
      vertex   -7.354252e+001 2.382091e+002 0.000000e+000
      vertex   -7.350977e+001 2.384158e+002 0.000000e+000
    endloop
  endfacet
  facet normal 0.000000e+000 0.000000e+000 -5.233681e-002
    outer loop
      vertex   -7.155347e+001 2.400000e+002 0.000000e+000
      vertex   -7.350977e+001 2.384158e+002 0.000000e+000
      vertex   -7.345559e+001 2.386180e+002 0.000000e+000
    endloop
  endfacet
  facet normal 0.000000e+000 0.000000e+000 -5.446324e-001
    outer loop
      vertex   -7.345559e+001 2.386180e+002 0.000000e+000
      vertex   -7.338056e+001 2.388135e+002 0.000000e+000
      vertex   -7.155347e+001 2.400000e+002 0.000000e+000
    endloop
  endfacet
  facet normal 0.000000e+000 0.000000e+000 -5.233488e-002
    outer loop
      vertex   -7.155347e+001 2.400000e+002 0.000000e+000
      vertex   -7.338056e+001 2.388135e+002 0.000000e+000
      vertex   -7.328552e+001 2.390000e+002 0.000000e+000
    endloop
  endfacet
  facet normal 0.000000e+000 0.000000e+000 -5.233533e-002
    outer loop
      vertex   -7.155347e+001 2.400000e+002 0.000000e+000
      vertex   -7.328552e+001 2.390000e+002 0.000000e+000
      vertex   -7.317151e+001 2.391756e+002 0.000000e+000
    endloop
  endfacet
  facet normal 0.000000e+000 0.000000e+000 -4.067312e-001
    outer loop
      vertex   -7.317151e+001 2.391756e+002 0.000000e+000
      vertex   -7.303976e+001 2.393383e+002 0.000000e+000
      vertex   -7.155347e+001 2.400000e+002 0.000000e+000
    endloop
  endfacet
  facet normal 0.000000e+000 0.000000e+000 -5.233249e-002
    outer loop
      vertex   -7.155347e+001 2.400000e+002 0.000000e+000
      vertex   -7.303976e+001 2.393383e+002 0.000000e+000
      vertex   -7.289173e+001 2.394863e+002 0.000000e+000
    endloop
  endfacet
  facet normal 0.000000e+000 0.000000e+000 -5.233550e-002
    outer loop
      vertex   -7.155347e+001 2.400000e+002 0.000000e+000
      vertex   -7.289173e+001 2.394863e+002 0.000000e+000
      vertex   -7.272904e+001 2.396180e+002 0.000000e+000
    endloop
  endfacet
  facet normal 0.000000e+000 0.000000e+000 -2.588671e-001
    outer loop
      vertex   -7.272904e+001 2.396180e+002 0.000000e+000
      vertex   -7.255347e+001 2.397321e+002 0.000000e+000
      vertex   -7.155347e+001 2.400000e+002 0.000000e+000
    endloop
  endfacet
  facet normal 0.000000e+000 0.000000e+000 -5.232622e-002
    outer loop
      vertex   -7.155347e+001 2.400000e+002 0.000000e+000
      vertex   -7.255347e+001 2.397321e+002 0.000000e+000
      vertex   -7.236694e+001 2.398271e+002 0.000000e+000
    endloop
  endfacet
  facet normal 0.000000e+000 0.000000e+000 -5.234415e-002
    outer loop
      vertex   -7.155347e+001 2.400000e+002 0.000000e+000
      vertex   -7.236694e+001 2.398271e+002 0.000000e+000
      vertex   -7.217151e+001 2.399021e+002 0.000000e+000
    endloop
  endfacet
  facet normal 0.000000e+000 0.000000e+000 -1.045410e-001
    outer loop
      vertex   -7.217151e+001 2.399021e+002 0.000000e+000
      vertex   -7.196930e+001 2.399563e+002 0.000000e+000
      vertex   -7.155347e+001 2.400000e+002 0.000000e+000
    endloop
  endfacet
  facet normal 0.000000e+000 0.000000e+000 -5.232789e-002
    outer loop
      vertex   -7.155347e+001 2.400000e+002 0.000000e+000
      vertex   -7.196930e+001 2.399563e+002 0.000000e+000
      vertex   -7.176253e+001 2.399890e+002 0.000000e+000
    endloop
  endfacet
  facet normal -0.000000e+000 -0.000000e+000 -1.045154e-001
    outer loop
      vertex   -1.034442e+001 2.399890e+002 0.000000e+000
      vertex   -1.013765e+001 2.399563e+002 0.000000e+000
      vertex   -1.055347e+001 2.400000e+002 0.000000e+000
    endloop
  endfacet
  facet normal 0.000000e+000 0.000000e+000 -5.234172e-002
    outer loop
      vertex   -1.055347e+001 2.400000e+002 0.000000e+000
      vertex   -1.013765e+001 2.399563e+002 0.000000e+000
      vertex   -9.935439e+000 2.399021e+002 0.000000e+000
    endloop
  endfacet
  facet normal 0.000000e+000 0.000000e+000 -5.234297e-002
    outer loop
      vertex   -1.055347e+001 2.400000e+002 0.000000e+000
      vertex   -9.935439e+000 2.399021e+002 0.000000e+000
      vertex   -9.740000e+000 2.398271e+002 0.000000e+000
    endloop
  endfacet
  facet normal -0.000000e+000 -0.000000e+000 -2.587794e-001
    outer loop
      vertex   -9.740000e+000 2.398271e+002 0.000000e+000
      vertex   -9.553473e+000 2.397321e+002 0.000000e+000
      vertex   -1.055347e+001 2.400000e+002 0.000000e+000
    endloop
  endfacet
  facet normal 0.000000e+000 0.000000e+000 -5.234606e-002
    outer loop
      vertex   -1.055347e+001 2.400000e+002 0.000000e+000
      vertex   -9.553473e+000 2.397321e+002 0.000000e+000
      vertex   -9.377902e+000 2.396180e+002 0.000000e+000
    endloop
  endfacet
  facet normal 0.000000e+000 0.000000e+000 -5.233527e-002
    outer loop
      vertex   -1.055347e+001 2.400000e+002 0.000000e+000
      vertex   -9.377902e+000 2.396180e+002 0.000000e+000
      vertex   -9.215212e+000 2.394863e+002 0.000000e+000
    endloop
  endfacet
  facet normal -0.000000e+000 -0.000000e+000 -4.067234e-001
    outer loop
      vertex   -9.215212e+000 2.394863e+002 0.000000e+000
      vertex   -9.067183e+000 2.393383e+002 0.000000e+000
      vertex   -1.055347e+001 2.400000e+002 0.000000e+000
    endloop
  endfacet
  facet normal 0.000000e+000 0.000000e+000 -5.233490e-002
    outer loop
      vertex   -1.055347e+001 2.400000e+002 0.000000e+000
      vertex   -9.067183e+000 2.393383e+002 0.000000e+000
      vertex   -8.935439e+000 2.391756e+002 0.000000e+000
    endloop
  endfacet
  facet normal 0.000000e+000 0.000000e+000 -5.233462e-002
    outer loop
      vertex   -1.055347e+001 2.400000e+002 0.000000e+000
      vertex   -8.935439e+000 2.391756e+002 0.000000e+000
      vertex   -8.821423e+000 2.390000e+002 0.000000e+000
    endloop
  endfacet
  facet normal -0.000000e+000 -0.000000e+000 -5.446321e-001
    outer loop
      vertex   -8.821423e+000 2.390000e+002 0.000000e+000
      vertex   -8.726382e+000 2.388135e+002 0.000000e+000
      vertex   -1.055347e+001 2.400000e+002 0.000000e+000
    endloop
  endfacet
  facet normal 0.000000e+000 0.000000e+000 -5.233957e-002
    outer loop
      vertex   -1.055347e+001 2.400000e+002 0.000000e+000
      vertex   -8.726382e+000 2.388135e+002 0.000000e+000
      vertex   -8.651360e+000 2.386180e+002 0.000000e+000
    endloop
  endfacet
  facet normal 0.000000e+000 0.000000e+000 -5.233538e-002
    outer loop
      vertex   -1.055347e+001 2.400000e+002 0.000000e+000
      vertex   -8.651360e+000 2.386180e+002 0.000000e+000
      vertex   -8.597178e+000 2.384158e+002 0.000000e+000
    endloop
  endfacet
  facet normal -0.000000e+000 -0.000000e+000 -6.691250e-001
    outer loop
      vertex   -8.597178e+000 2.384158e+002 0.000000e+000
      vertex   -8.564429e+000 2.382091e+002 0.000000e+000
      vertex   -1.055347e+001 2.400000e+002 0.000000e+000
    endloop
  endfacet
  facet normal 0.000000e+000 0.000000e+000 -5.233686e-002
    outer loop
      vertex   -1.055347e+001 2.400000e+002 0.000000e+000
      vertex   -8.564429e+000 2.382091e+002 0.000000e+000
      vertex   -8.553473e+000 2.380000e+002 0.000000e+000
    endloop
  endfacet
  facet normal -9.986297e-001 -5.233312e-002 0.000000e+000
    outer loop
      vertex   -7.355347e+001 1.770000e+002 0.000000e+000
      vertex   -7.354252e+001 1.767909e+002 0.000000e+000
      vertex   -7.355347e+001 1.770000e+002 3.000000e+000
    endloop
  endfacet
  facet normal -9.962071e-001 -5.220617e-002 -4.336809e-019
    outer loop
      vertex   -7.355347e+001 1.770000e+002 3.000000e+000
      vertex   -7.354252e+001 1.767909e+002 0.000000e+000
      vertex   -7.354252e+001 1.767909e+002 3.000000e+000
    endloop
  endfacet
  facet normal -6.875169e-002 -1.089118e-002 -0.000000e+000
    outer loop
      vertex   -7.354252e+001 1.767909e+002 3.000000e+000
      vertex   -7.354252e+001 1.767909e+002 0.000000e+000
      vertex   -7.350977e+001 1.765842e+002 0.000000e+000
    endloop
  endfacet
  facet normal -9.852881e-001 -1.560827e-001 0.000000e+000
    outer loop
      vertex   -7.354252e+001 1.767909e+002 3.000000e+000
      vertex   -7.350977e+001 1.765842e+002 0.000000e+000
      vertex   -7.350977e+001 1.765842e+002 3.000000e+000
    endloop
  endfacet
  facet normal -6.723965e-002 -1.801497e-002 -0.000000e+000
    outer loop
      vertex   -7.350977e+001 1.765842e+002 3.000000e+000
      vertex   -7.350977e+001 1.765842e+002 0.000000e+000
      vertex   -7.345559e+001 1.763820e+002 0.000000e+000
    endloop
  endfacet
  facet normal -9.635893e-001 -2.581666e-001 0.000000e+000
    outer loop
      vertex   -7.350977e+001 1.765842e+002 3.000000e+000
      vertex   -7.345559e+001 1.763820e+002 0.000000e+000
      vertex   -7.345559e+001 1.763820e+002 3.000000e+000
    endloop
  endfacet
  facet normal -6.499188e-002 -2.494848e-002 -0.000000e+000
    outer loop
      vertex   -7.345559e+001 1.763820e+002 3.000000e+000
      vertex   -7.345559e+001 1.763820e+002 0.000000e+000
      vertex   -7.338056e+001 1.761865e+002 0.000000e+000
    endloop
  endfacet
  facet normal -9.313133e-001 -3.575039e-001 0.000000e+000
    outer loop
      vertex   -7.345559e+001 1.763820e+002 3.000000e+000
      vertex   -7.338056e+001 1.761865e+002 0.000000e+000
      vertex   -7.338056e+001 1.761865e+002 3.000000e+000
    endloop
  endfacet
  facet normal -6.202366e-002 -3.160294e-002 -0.000000e+000
    outer loop
      vertex   -7.338056e+001 1.761865e+002 3.000000e+000
      vertex   -7.338056e+001 1.761865e+002 0.000000e+000
      vertex   -7.328552e+001 1.760000e+002 0.000000e+000
    endloop
  endfacet
  facet normal -8.888434e-001 -4.528927e-001 3.469447e-018
    outer loop
      vertex   -7.338056e+001 1.761865e+002 3.000000e+000
      vertex   -7.328552e+001 1.760000e+002 0.000000e+000
      vertex   -7.328552e+001 1.760000e+002 3.000000e+000
    endloop
  endfacet
  facet normal -5.838058e-002 -3.791237e-002 -0.000000e+000
    outer loop
      vertex   -7.328552e+001 1.760000e+002 3.000000e+000
      vertex   -7.328552e+001 1.760000e+002 0.000000e+000
      vertex   -7.317151e+001 1.758244e+002 0.000000e+000
    endloop
  endfacet
  facet normal -8.366389e-001 -5.433136e-001 0.000000e+000
    outer loop
      vertex   -7.328552e+001 1.760000e+002 3.000000e+000
      vertex   -7.317151e+001 1.758244e+002 0.000000e+000
      vertex   -7.317151e+001 1.758244e+002 3.000000e+000
    endloop
  endfacet
  facet normal -7.771430e-001 -6.293240e-001 -0.000000e+000
    outer loop
      vertex   -7.317151e+001 1.758244e+002 3.000000e+000
      vertex   -7.317151e+001 1.758244e+002 0.000000e+000
      vertex   -7.303976e+001 1.756617e+002 3.000000e+000
    endloop
  endfacet
  facet normal -5.409819e-002 -4.380827e-002 -0.000000e+000
    outer loop
      vertex   -7.303976e+001 1.756617e+002 3.000000e+000
      vertex   -7.317151e+001 1.758244e+002 0.000000e+000
      vertex   -7.303976e+001 1.756617e+002 0.000000e+000
    endloop
  endfacet
  facet normal -7.070885e-001 -7.071250e-001 -0.000000e+000
    outer loop
      vertex   -7.303976e+001 1.756617e+002 3.000000e+000
      vertex   -7.303976e+001 1.756617e+002 0.000000e+000
      vertex   -7.289173e+001 1.755137e+002 3.000000e+000
    endloop
  endfacet
  facet normal -4.922214e-002 -4.922468e-002 -0.000000e+000
    outer loop
      vertex   -7.289173e+001 1.755137e+002 3.000000e+000
      vertex   -7.303976e+001 1.756617e+002 0.000000e+000
      vertex   -7.289173e+001 1.755137e+002 0.000000e+000
    endloop
  endfacet
  facet normal -6.293240e-001 -7.771430e-001 -0.000000e+000
    outer loop
      vertex   -7.289173e+001 1.755137e+002 3.000000e+000
      vertex   -7.289173e+001 1.755137e+002 0.000000e+000
      vertex   -7.272904e+001 1.753820e+002 3.000000e+000
    endloop
  endfacet
  facet normal -4.380827e-002 -5.409819e-002 -0.000000e+000
    outer loop
      vertex   -7.272904e+001 1.753820e+002 3.000000e+000
      vertex   -7.289173e+001 1.755137e+002 0.000000e+000
      vertex   -7.272904e+001 1.753820e+002 0.000000e+000
    endloop
  endfacet
  facet normal -3.791744e-002 -5.838057e-002 -0.000000e+000
    outer loop
      vertex   -7.272904e+001 1.753820e+002 3.000000e+000
      vertex   -7.272904e+001 1.753820e+002 0.000000e+000
      vertex   -7.255347e+001 1.752679e+002 0.000000e+000
    endloop
  endfacet
  facet normal -5.433646e-001 -8.366055e-001 0.000000e+000
    outer loop
      vertex   -7.272904e+001 1.753820e+002 3.000000e+000
      vertex   -7.255347e+001 1.752679e+002 0.000000e+000
      vertex   -7.255347e+001 1.752679e+002 3.000000e+000
    endloop
  endfacet
  facet normal -3.160040e-002 -6.202619e-002 -0.000000e+000
    outer loop
      vertex   -7.255347e+001 1.752679e+002 3.000000e+000
      vertex   -7.255347e+001 1.752679e+002 0.000000e+000
      vertex   -7.236694e+001 1.751729e+002 0.000000e+000
    endloop
  endfacet
  facet normal -4.528491e-001 -8.888655e-001 0.000000e+000
    outer loop
      vertex   -7.255347e+001 1.752679e+002 3.000000e+000
      vertex   -7.236694e+001 1.751729e+002 0.000000e+000
      vertex   -7.236694e+001 1.751729e+002 3.000000e+000
    endloop
  endfacet
  facet normal -2.494849e-002 -6.498682e-002 -0.000000e+000
    outer loop
      vertex   -7.236694e+001 1.751729e+002 3.000000e+000
      vertex   -7.236694e+001 1.751729e+002 0.000000e+000
      vertex   -7.217151e+001 1.750979e+002 0.000000e+000
    endloop
  endfacet
  facet normal -3.575284e-001 -9.313043e-001 -3.469447e-018
    outer loop
      vertex   -7.236694e+001 1.751729e+002 3.000000e+000
      vertex   -7.217151e+001 1.750979e+002 0.000000e+000
      vertex   -7.217151e+001 1.750979e+002 3.000000e+000
    endloop
  endfacet
  facet normal -1.801751e-002 -6.723965e-002 -0.000000e+000
    outer loop
      vertex   -7.217151e+001 1.750979e+002 3.000000e+000
      vertex   -7.217151e+001 1.750979e+002 0.000000e+000
      vertex   -7.196930e+001 1.750437e+002 0.000000e+000
    endloop
  endfacet
  facet normal -2.582005e-001 -9.635801e-001 0.000000e+000
    outer loop
      vertex   -7.217151e+001 1.750979e+002 3.000000e+000
      vertex   -7.196930e+001 1.750437e+002 0.000000e+000
      vertex   -7.196930e+001 1.750437e+002 3.000000e+000
    endloop
  endfacet
  facet normal -1.088864e-002 -6.875674e-002 -0.000000e+000
    outer loop
      vertex   -7.196930e+001 1.750437e+002 3.000000e+000
      vertex   -7.196930e+001 1.750437e+002 0.000000e+000
      vertex   -7.176253e+001 1.750110e+002 0.000000e+000
    endloop
  endfacet
  facet normal -1.560360e-001 -9.852952e-001 0.000000e+000
    outer loop
      vertex   -7.196930e+001 1.750437e+002 3.000000e+000
      vertex   -7.176253e+001 1.750110e+002 0.000000e+000
      vertex   -7.176253e+001 1.750110e+002 3.000000e+000
    endloop
  endfacet
  facet normal -3.643078e-003 -6.951531e-002 -0.000000e+000
    outer loop
      vertex   -7.176253e+001 1.750110e+002 3.000000e+000
      vertex   -7.176253e+001 1.750110e+002 0.000000e+000
      vertex   -7.155347e+001 1.750000e+002 0.000000e+000
    endloop
  endfacet
  facet normal -5.220807e-002 -9.962071e-001 0.000000e+000
    outer loop
      vertex   -7.176253e+001 1.750110e+002 3.000000e+000
      vertex   -7.155347e+001 1.750000e+002 0.000000e+000
      vertex   -7.155347e+001 1.750000e+002 3.000000e+000
    endloop
  endfacet
  facet normal -1.000000e+000 0.000000e+000 0.000000e+000
    outer loop
      vertex   -7.355347e+001 1.770000e+002 0.000000e+000
      vertex   -7.355347e+001 1.770000e+002 3.000000e+000
      vertex   -7.355347e+001 2.075000e+002 0.000000e+000
    endloop
  endfacet
  facet normal -9.951974e-001 0.000000e+000 0.000000e+000
    outer loop
      vertex   -7.355347e+001 2.075000e+002 0.000000e+000
      vertex   -7.355347e+001 1.770000e+002 3.000000e+000
      vertex   -7.355347e+001 2.075000e+002 3.000000e+000
    endloop
  endfacet
  facet normal -1.000000e+000 0.000000e+000 0.000000e+000
    outer loop
      vertex   -7.355347e+001 2.075000e+002 0.000000e+000
      vertex   -7.355347e+001 2.075000e+002 3.000000e+000
      vertex   -7.355347e+001 2.380000e+002 0.000000e+000
    endloop
  endfacet
  facet normal -9.951974e-001 0.000000e+000 0.000000e+000
    outer loop
      vertex   -7.355347e+001 2.380000e+002 0.000000e+000
      vertex   -7.355347e+001 2.075000e+002 3.000000e+000
      vertex   -7.355347e+001 2.380000e+002 3.000000e+000
    endloop
  endfacet
  facet normal 0.000000e+000 -0.000000e+000 7.071081e-001
    outer loop
      vertex   -1.034442e+001 1.750110e+002 3.000000e+000
      vertex   -8.553473e+000 1.770000e+002 3.000000e+000
      vertex   -1.055347e+001 1.750000e+002 3.000000e+000
    endloop
  endfacet
  facet normal 0.000000e+000 -0.000000e+000 9.154422e-001
    outer loop
      vertex   -1.055347e+001 1.750000e+002 3.000000e+000
      vertex   -8.553473e+000 1.770000e+002 3.000000e+000
      vertex   -1.249973e+001 1.800000e+002 3.000000e+000
    endloop
  endfacet
  facet normal 0.000000e+000 0.000000e+000 4.156029e-001
    outer loop
      vertex   -1.055347e+001 1.750000e+002 3.000000e+000
      vertex   -1.249973e+001 1.800000e+002 3.000000e+000
      vertex   -1.569974e+001 1.800000e+002 3.000000e+000
    endloop
  endfacet
  facet normal 0.000000e+000 0.000000e+000 6.293321e-001
    outer loop
      vertex   -1.034442e+001 1.750110e+002 3.000000e+000
      vertex   -1.013765e+001 1.750437e+002 3.000000e+000
      vertex   -8.553473e+000 1.770000e+002 3.000000e+000
    endloop
  endfacet
  facet normal 0.000000e+000 0.000000e+000 5.233543e-002
    outer loop
      vertex   -8.553473e+000 1.770000e+002 3.000000e+000
      vertex   -1.013765e+001 1.750437e+002 3.000000e+000
      vertex   -9.935439e+000 1.750979e+002 3.000000e+000
    endloop
  endfacet
  facet normal 0.000000e+000 0.000000e+000 5.233461e-002
    outer loop
      vertex   -8.553473e+000 1.770000e+002 3.000000e+000
      vertex   -9.935439e+000 1.750979e+002 3.000000e+000
      vertex   -9.740000e+000 1.751729e+002 3.000000e+000
    endloop
  endfacet
  facet normal 0.000000e+000 0.000000e+000 5.000309e-001
    outer loop
      vertex   -9.740000e+000 1.751729e+002 3.000000e+000
      vertex   -9.553473e+000 1.752679e+002 3.000000e+000
      vertex   -8.553473e+000 1.770000e+002 3.000000e+000
    endloop
  endfacet
  facet normal 0.000000e+000 0.000000e+000 5.233292e-002
    outer loop
      vertex   -8.553473e+000 1.770000e+002 3.000000e+000
      vertex   -9.553473e+000 1.752679e+002 3.000000e+000
      vertex   -9.377902e+000 1.753820e+002 3.000000e+000
    endloop
  endfacet
  facet normal 0.000000e+000 0.000000e+000 5.233564e-002
    outer loop
      vertex   -8.553473e+000 1.770000e+002 3.000000e+000
      vertex   -9.377902e+000 1.753820e+002 3.000000e+000
      vertex   -9.215212e+000 1.755137e+002 3.000000e+000
    endloop
  endfacet
  facet normal 0.000000e+000 0.000000e+000 3.583750e-001
    outer loop
      vertex   -9.215212e+000 1.755137e+002 3.000000e+000
      vertex   -9.067183e+000 1.756617e+002 3.000000e+000
      vertex   -8.553473e+000 1.770000e+002 3.000000e+000
    endloop
  endfacet
  facet normal 0.000000e+000 0.000000e+000 5.233629e-002
    outer loop
      vertex   -8.553473e+000 1.770000e+002 3.000000e+000
      vertex   -9.067183e+000 1.756617e+002 3.000000e+000
      vertex   -8.935439e+000 1.758244e+002 3.000000e+000
    endloop
  endfacet
  facet normal 0.000000e+000 0.000000e+000 5.233631e-002
    outer loop
      vertex   -8.553473e+000 1.770000e+002 3.000000e+000
      vertex   -8.935439e+000 1.758244e+002 3.000000e+000
      vertex   -8.821423e+000 1.760000e+002 3.000000e+000
    endloop
  endfacet
  facet normal 0.000000e+000 0.000000e+000 2.079187e-001
    outer loop
      vertex   -8.821423e+000 1.760000e+002 3.000000e+000
      vertex   -8.726382e+000 1.761865e+002 3.000000e+000
      vertex   -8.553473e+000 1.770000e+002 3.000000e+000
    endloop
  endfacet
  facet normal 0.000000e+000 0.000000e+000 5.233398e-002
    outer loop
      vertex   -8.553473e+000 1.770000e+002 3.000000e+000
      vertex   -8.726382e+000 1.761865e+002 3.000000e+000
      vertex   -8.651360e+000 1.763820e+002 3.000000e+000
    endloop
  endfacet
  facet normal 0.000000e+000 0.000000e+000 5.233591e-002
    outer loop
      vertex   -8.553473e+000 1.770000e+002 3.000000e+000
      vertex   -8.651360e+000 1.763820e+002 3.000000e+000
      vertex   -8.597178e+000 1.765842e+002 3.000000e+000
    endloop
  endfacet
  facet normal 0.000000e+000 0.000000e+000 5.233961e-002
    outer loop
      vertex   -8.597178e+000 1.765842e+002 3.000000e+000
      vertex   -8.564429e+000 1.767909e+002 3.000000e+000
      vertex   -8.553473e+000 1.770000e+002 3.000000e+000
    endloop
  endfacet
  facet normal -0.000000e+000 0.000000e+000 7.960805e-001
    outer loop
      vertex   -1.249973e+001 1.800000e+002 3.000000e+000
      vertex   -8.553473e+000 1.770000e+002 3.000000e+000
      vertex   -1.249973e+001 1.910000e+002 3.000000e+000
    endloop
  endfacet
  facet normal -0.000000e+000 0.000000e+000 4.877451e-001
    outer loop
      vertex   -1.249973e+001 1.910000e+002 3.000000e+000
      vertex   -8.553473e+000 1.770000e+002 3.000000e+000
      vertex   -8.553473e+000 2.075000e+002 3.000000e+000
    endloop
  endfacet
  facet normal 0.000000e+000 -0.000000e+000 9.725708e-001
    outer loop
      vertex   -1.249973e+001 1.910000e+002 3.000000e+000
      vertex   -8.553473e+000 2.075000e+002 3.000000e+000
      vertex   -1.569974e+001 1.910000e+002 3.000000e+000
    endloop
  endfacet
  facet normal 0.000000e+000 -0.000000e+000 9.858853e-001
    outer loop
      vertex   -1.569974e+001 1.910000e+002 3.000000e+000
      vertex   -8.553473e+000 2.075000e+002 3.000000e+000
      vertex   -4.105347e+001 2.075000e+002 3.000000e+000
    endloop
  endfacet
  facet normal 0.000000e+000 0.000000e+000 8.339810e-001
    outer loop
      vertex   -1.569974e+001 1.910000e+002 3.000000e+000
      vertex   -4.105347e+001 2.075000e+002 3.000000e+000
      vertex   -4.105347e+001 1.800000e+002 3.000000e+000
    endloop
  endfacet
  facet normal 0.000000e+000 -0.000000e+000 9.173789e-001
    outer loop
      vertex   -4.105347e+001 1.800000e+002 3.000000e+000
      vertex   -4.105347e+001 2.075000e+002 3.000000e+000
      vertex   -6.640721e+001 1.910000e+002 3.000000e+000
    endloop
  endfacet
  facet normal 0.000000e+000 0.000000e+000 3.980150e-001
    outer loop
      vertex   -4.105347e+001 1.800000e+002 3.000000e+000
      vertex   -6.640721e+001 1.910000e+002 3.000000e+000
      vertex   -6.640721e+001 1.800000e+002 3.000000e+000
    endloop
  endfacet
  facet normal 0.000000e+000 0.000000e+000 2.141507e-001
    outer loop
      vertex   -8.553473e+000 2.380000e+002 3.000000e+000
      vertex   -1.249973e+001 2.200000e+002 3.000000e+000
      vertex   -8.553473e+000 2.075000e+002 3.000000e+000
    endloop
  endfacet
  facet normal 0.000000e+000 0.000000e+000 7.844184e-001
    outer loop
      vertex   -8.553473e+000 2.075000e+002 3.000000e+000
      vertex   -1.249973e+001 2.200000e+002 3.000000e+000
      vertex   -1.249973e+001 2.090000e+002 3.000000e+000
    endloop
  endfacet
  facet normal 0.000000e+000 0.000000e+000 1.557076e-001
    outer loop
      vertex   -8.553473e+000 2.075000e+002 3.000000e+000
      vertex   -1.249973e+001 2.090000e+002 3.000000e+000
      vertex   -1.569974e+001 2.090000e+002 3.000000e+000
    endloop
  endfacet
  facet normal 0.000000e+000 0.000000e+000 7.071062e-001
    outer loop
      vertex   -8.564429e+000 2.382091e+002 3.000000e+000
      vertex   -1.055347e+001 2.400000e+002 3.000000e+000
      vertex   -8.553473e+000 2.380000e+002 3.000000e+000
    endloop
  endfacet
  facet normal 0.000000e+000 0.000000e+000 9.181271e-001
    outer loop
      vertex   -8.553473e+000 2.380000e+002 3.000000e+000
      vertex   -1.055347e+001 2.400000e+002 3.000000e+000
      vertex   -1.569974e+001 2.200000e+002 3.000000e+000
    endloop
  endfacet
  facet normal 0.000000e+000 0.000000e+000 1.613988e-001
    outer loop
      vertex   -8.553473e+000 2.380000e+002 3.000000e+000
      vertex   -1.569974e+001 2.200000e+002 3.000000e+000
      vertex   -1.249973e+001 2.200000e+002 3.000000e+000
    endloop
  endfacet
  facet normal 0.000000e+000 0.000000e+000 6.293167e-001
    outer loop
      vertex   -8.564429e+000 2.382091e+002 3.000000e+000
      vertex   -8.597178e+000 2.384158e+002 3.000000e+000
      vertex   -1.055347e+001 2.400000e+002 3.000000e+000
    endloop
  endfacet
  facet normal 0.000000e+000 0.000000e+000 5.233538e-002
    outer loop
      vertex   -1.055347e+001 2.400000e+002 3.000000e+000
      vertex   -8.597178e+000 2.384158e+002 3.000000e+000
      vertex   -8.651360e+000 2.386180e+002 3.000000e+000
    endloop
  endfacet
  facet normal 0.000000e+000 0.000000e+000 5.233957e-002
    outer loop
      vertex   -1.055347e+001 2.400000e+002 3.000000e+000
      vertex   -8.651360e+000 2.386180e+002 3.000000e+000
      vertex   -8.726382e+000 2.388135e+002 3.000000e+000
    endloop
  endfacet
  facet normal 0.000000e+000 0.000000e+000 4.999940e-001
    outer loop
      vertex   -8.726382e+000 2.388135e+002 3.000000e+000
      vertex   -8.821423e+000 2.390000e+002 3.000000e+000
      vertex   -1.055347e+001 2.400000e+002 3.000000e+000
    endloop
  endfacet
  facet normal 0.000000e+000 0.000000e+000 5.233462e-002
    outer loop
      vertex   -1.055347e+001 2.400000e+002 3.000000e+000
      vertex   -8.821423e+000 2.390000e+002 3.000000e+000
      vertex   -8.935439e+000 2.391756e+002 3.000000e+000
    endloop
  endfacet
  facet normal 0.000000e+000 0.000000e+000 5.233490e-002
    outer loop
      vertex   -1.055347e+001 2.400000e+002 3.000000e+000
      vertex   -8.935439e+000 2.391756e+002 3.000000e+000
      vertex   -9.067183e+000 2.393383e+002 3.000000e+000
    endloop
  endfacet
  facet normal 0.000000e+000 0.000000e+000 3.583565e-001
    outer loop
      vertex   -9.067183e+000 2.393383e+002 3.000000e+000
      vertex   -9.215212e+000 2.394863e+002 3.000000e+000
      vertex   -1.055347e+001 2.400000e+002 3.000000e+000
    endloop
  endfacet
  facet normal 0.000000e+000 0.000000e+000 5.233527e-002
    outer loop
      vertex   -1.055347e+001 2.400000e+002 3.000000e+000
      vertex   -9.215212e+000 2.394863e+002 3.000000e+000
      vertex   -9.377902e+000 2.396180e+002 3.000000e+000
    endloop
  endfacet
  facet normal 0.000000e+000 0.000000e+000 5.234606e-002
    outer loop
      vertex   -1.055347e+001 2.400000e+002 3.000000e+000
      vertex   -9.377902e+000 2.396180e+002 3.000000e+000
      vertex   -9.553473e+000 2.397321e+002 3.000000e+000
    endloop
  endfacet
  facet normal 0.000000e+000 0.000000e+000 2.078801e-001
    outer loop
      vertex   -9.553473e+000 2.397321e+002 3.000000e+000
      vertex   -9.740000e+000 2.398271e+002 3.000000e+000
      vertex   -1.055347e+001 2.400000e+002 3.000000e+000
    endloop
  endfacet
  facet normal 0.000000e+000 0.000000e+000 5.234297e-002
    outer loop
      vertex   -1.055347e+001 2.400000e+002 3.000000e+000
      vertex   -9.740000e+000 2.398271e+002 3.000000e+000
      vertex   -9.935439e+000 2.399021e+002 3.000000e+000
    endloop
  endfacet
  facet normal 0.000000e+000 0.000000e+000 5.234172e-002
    outer loop
      vertex   -1.055347e+001 2.400000e+002 3.000000e+000
      vertex   -9.935439e+000 2.399021e+002 3.000000e+000
      vertex   -1.013765e+001 2.399563e+002 3.000000e+000
    endloop
  endfacet
  facet normal 0.000000e+000 0.000000e+000 5.232951e-002
    outer loop
      vertex   -1.013765e+001 2.399563e+002 3.000000e+000
      vertex   -1.034442e+001 2.399890e+002 3.000000e+000
      vertex   -1.055347e+001 2.400000e+002 3.000000e+000
    endloop
  endfacet
  facet normal 0.000000e+000 0.000000e+000 9.684532e-001
    outer loop
      vertex   -1.055347e+001 2.400000e+002 3.000000e+000
      vertex   -4.105347e+001 2.400000e+002 3.000000e+000
      vertex   -1.569974e+001 2.200000e+002 3.000000e+000
    endloop
  endfacet
  facet normal 0.000000e+000 0.000000e+000 8.806583e-001
    outer loop
      vertex   -1.569974e+001 2.200000e+002 3.000000e+000
      vertex   -4.105347e+001 2.400000e+002 3.000000e+000
      vertex   -4.105347e+001 2.090000e+002 3.000000e+000
    endloop
  endfacet
  facet normal 0.000000e+000 0.000000e+000 9.173789e-001
    outer loop
      vertex   -1.569974e+001 2.200000e+002 3.000000e+000
      vertex   -4.105347e+001 2.090000e+002 3.000000e+000
      vertex   -1.569974e+001 2.090000e+002 3.000000e+000
    endloop
  endfacet
  facet normal 0.000000e+000 0.000000e+000 5.905960e-002
    outer loop
      vertex   -1.569974e+001 2.090000e+002 3.000000e+000
      vertex   -4.105347e+001 2.090000e+002 3.000000e+000
      vertex   -4.105347e+001 2.075000e+002 3.000000e+000
    endloop
  endfacet
  facet normal 0.000000e+000 0.000000e+000 2.628649e-001
    outer loop
      vertex   -1.569974e+001 2.090000e+002 3.000000e+000
      vertex   -4.105347e+001 2.075000e+002 3.000000e+000
      vertex   -8.553473e+000 2.075000e+002 3.000000e+000
    endloop
  endfacet
  facet normal 0.000000e+000 -0.000000e+000 9.173789e-001
    outer loop
      vertex   -4.105347e+001 2.090000e+002 3.000000e+000
      vertex   -4.105347e+001 2.400000e+002 3.000000e+000
      vertex   -6.640721e+001 2.200000e+002 3.000000e+000
    endloop
  endfacet
  facet normal 0.000000e+000 -0.000000e+000 9.146932e-001
    outer loop
      vertex   -6.640721e+001 2.200000e+002 3.000000e+000
      vertex   -4.105347e+001 2.400000e+002 3.000000e+000
      vertex   -7.155347e+001 2.400000e+002 3.000000e+000
    endloop
  endfacet
  facet normal 0.000000e+000 0.000000e+000 1.257467e-001
    outer loop
      vertex   -6.640721e+001 2.200000e+002 3.000000e+000
      vertex   -7.155347e+001 2.400000e+002 3.000000e+000
      vertex   -7.355347e+001 2.380000e+002 3.000000e+000
    endloop
  endfacet
  facet normal 0.000000e+000 0.000000e+000 6.691327e-001
    outer loop
      vertex   -7.355347e+001 2.380000e+002 3.000000e+000
      vertex   -7.155347e+001 2.400000e+002 3.000000e+000
      vertex   -7.354252e+001 2.382091e+002 3.000000e+000
    endloop
  endfacet
  facet normal 0.000000e+000 0.000000e+000 6.292994e-001
    outer loop
      vertex   -7.354252e+001 2.382091e+002 3.000000e+000
      vertex   -7.155347e+001 2.400000e+002 3.000000e+000
      vertex   -7.350977e+001 2.384158e+002 3.000000e+000
    endloop
  endfacet
  facet normal 0.000000e+000 0.000000e+000 5.878036e-001
    outer loop
      vertex   -7.350977e+001 2.384158e+002 3.000000e+000
      vertex   -7.155347e+001 2.400000e+002 3.000000e+000
      vertex   -7.345559e+001 2.386180e+002 3.000000e+000
    endloop
  endfacet
  facet normal 0.000000e+000 0.000000e+000 5.446324e-001
    outer loop
      vertex   -7.345559e+001 2.386180e+002 3.000000e+000
      vertex   -7.155347e+001 2.400000e+002 3.000000e+000
      vertex   -7.338056e+001 2.388135e+002 3.000000e+000
    endloop
  endfacet
  facet normal 0.000000e+000 0.000000e+000 4.999969e-001
    outer loop
      vertex   -7.338056e+001 2.388135e+002 3.000000e+000
      vertex   -7.155347e+001 2.400000e+002 3.000000e+000
      vertex   -7.328552e+001 2.390000e+002 3.000000e+000
    endloop
  endfacet
  facet normal 0.000000e+000 0.000000e+000 4.539945e-001
    outer loop
      vertex   -7.328552e+001 2.390000e+002 3.000000e+000
      vertex   -7.155347e+001 2.400000e+002 3.000000e+000
      vertex   -7.317151e+001 2.391756e+002 3.000000e+000
    endloop
  endfacet
  facet normal 0.000000e+000 0.000000e+000 4.067312e-001
    outer loop
      vertex   -7.317151e+001 2.391756e+002 3.000000e+000
      vertex   -7.155347e+001 2.400000e+002 3.000000e+000
      vertex   -7.303976e+001 2.393383e+002 3.000000e+000
    endloop
  endfacet
  facet normal 0.000000e+000 0.000000e+000 3.583417e-001
    outer loop
      vertex   -7.303976e+001 2.393383e+002 3.000000e+000
      vertex   -7.155347e+001 2.400000e+002 3.000000e+000
      vertex   -7.289173e+001 2.394863e+002 3.000000e+000
    endloop
  endfacet
  facet normal 0.000000e+000 0.000000e+000 3.090159e-001
    outer loop
      vertex   -7.289173e+001 2.394863e+002 3.000000e+000
      vertex   -7.155347e+001 2.400000e+002 3.000000e+000
      vertex   -7.272904e+001 2.396180e+002 3.000000e+000
    endloop
  endfacet
  facet normal 0.000000e+000 0.000000e+000 2.588671e-001
    outer loop
      vertex   -7.272904e+001 2.396180e+002 3.000000e+000
      vertex   -7.155347e+001 2.400000e+002 3.000000e+000
      vertex   -7.255347e+001 2.397321e+002 3.000000e+000
    endloop
  endfacet
  facet normal 0.000000e+000 0.000000e+000 2.078720e-001
    outer loop
      vertex   -7.255347e+001 2.397321e+002 3.000000e+000
      vertex   -7.155347e+001 2.400000e+002 3.000000e+000
      vertex   -7.236694e+001 2.398271e+002 3.000000e+000
    endloop
  endfacet
  facet normal 0.000000e+000 0.000000e+000 1.564609e-001
    outer loop
      vertex   -7.236694e+001 2.398271e+002 3.000000e+000
      vertex   -7.155347e+001 2.400000e+002 3.000000e+000
      vertex   -7.217151e+001 2.399021e+002 3.000000e+000
    endloop
  endfacet
  facet normal 0.000000e+000 0.000000e+000 1.045410e-001
    outer loop
      vertex   -7.217151e+001 2.399021e+002 3.000000e+000
      vertex   -7.155347e+001 2.400000e+002 3.000000e+000
      vertex   -7.196930e+001 2.399563e+002 3.000000e+000
    endloop
  endfacet
  facet normal 0.000000e+000 0.000000e+000 5.232571e-002
    outer loop
      vertex   -7.196930e+001 2.399563e+002 3.000000e+000
      vertex   -7.155347e+001 2.400000e+002 3.000000e+000
      vertex   -7.176253e+001 2.399890e+002 3.000000e+000
    endloop
  endfacet
  facet normal 0.000000e+000 0.000000e+000 9.294304e-001
    outer loop
      vertex   -6.640721e+001 2.200000e+002 3.000000e+000
      vertex   -7.355347e+001 2.380000e+002 3.000000e+000
      vertex   -6.960721e+001 2.200000e+002 3.000000e+000
    endloop
  endfacet
  facet normal 0.000000e+000 0.000000e+000 4.982863e-001
    outer loop
      vertex   -6.960721e+001 2.200000e+002 3.000000e+000
      vertex   -7.355347e+001 2.380000e+002 3.000000e+000
      vertex   -7.355347e+001 2.075000e+002 3.000000e+000
    endloop
  endfacet
  facet normal 0.000000e+000 0.000000e+000 3.010549e-001
    outer loop
      vertex   -6.960721e+001 2.200000e+002 3.000000e+000
      vertex   -7.355347e+001 2.075000e+002 3.000000e+000
      vertex   -6.960721e+001 2.090000e+002 3.000000e+000
    endloop
  endfacet
  facet normal -0.000000e+000 0.000000e+000 3.553044e-001
    outer loop
      vertex   -6.960721e+001 2.090000e+002 3.000000e+000
      vertex   -7.355347e+001 2.075000e+002 3.000000e+000
      vertex   -6.640721e+001 2.090000e+002 3.000000e+000
    endloop
  endfacet
  facet normal 0.000000e+000 0.000000e+000 2.628649e-001
    outer loop
      vertex   -6.640721e+001 2.090000e+002 3.000000e+000
      vertex   -7.355347e+001 2.075000e+002 3.000000e+000
      vertex   -4.105347e+001 2.075000e+002 3.000000e+000
    endloop
  endfacet
  facet normal -0.000000e+000 0.000000e+000 5.905961e-002
    outer loop
      vertex   -6.640721e+001 2.090000e+002 3.000000e+000
      vertex   -4.105347e+001 2.075000e+002 3.000000e+000
      vertex   -4.105347e+001 2.090000e+002 3.000000e+000
    endloop
  endfacet
  facet normal 0.000000e+000 0.000000e+000 2.713040e-001
    outer loop
      vertex   -7.355347e+001 1.770000e+002 3.000000e+000
      vertex   -6.960721e+001 1.910000e+002 3.000000e+000
      vertex   -7.355347e+001 2.075000e+002 3.000000e+000
    endloop
  endfacet
  facet normal 0.000000e+000 0.000000e+000 1.730833e-001
    outer loop
      vertex   -7.355347e+001 2.075000e+002 3.000000e+000
      vertex   -6.960721e+001 1.910000e+002 3.000000e+000
      vertex   -6.640721e+001 1.910000e+002 3.000000e+000
    endloop
  endfacet
  facet normal -0.000000e+000 0.000000e+000 9.176314e-001
    outer loop
      vertex   -7.355347e+001 2.075000e+002 3.000000e+000
      vertex   -6.640721e+001 1.910000e+002 3.000000e+000
      vertex   -4.105347e+001 2.075000e+002 3.000000e+000
    endloop
  endfacet
  facet normal -0.000000e+000 -0.000000e+000 1.045593e-001
    outer loop
      vertex   -7.354252e+001 1.767909e+002 3.000000e+000
      vertex   -7.350977e+001 1.765842e+002 3.000000e+000
      vertex   -7.355347e+001 1.770000e+002 3.000000e+000
    endloop
  endfacet
  facet normal 0.000000e+000 0.000000e+000 5.232384e-002
    outer loop
      vertex   -7.355347e+001 1.770000e+002 3.000000e+000
      vertex   -7.350977e+001 1.765842e+002 3.000000e+000
      vertex   -7.345559e+001 1.763820e+002 3.000000e+000
    endloop
  endfacet
  facet normal 0.000000e+000 0.000000e+000 5.234035e-002
    outer loop
      vertex   -7.355347e+001 1.770000e+002 3.000000e+000
      vertex   -7.345559e+001 1.763820e+002 3.000000e+000
      vertex   -7.338056e+001 1.761865e+002 3.000000e+000
    endloop
  endfacet
  facet normal -0.000000e+000 -0.000000e+000 2.588197e-001
    outer loop
      vertex   -7.338056e+001 1.761865e+002 3.000000e+000
      vertex   -7.328552e+001 1.760000e+002 3.000000e+000
      vertex   -7.355347e+001 1.770000e+002 3.000000e+000
    endloop
  endfacet
  facet normal 0.000000e+000 0.000000e+000 5.233380e-002
    outer loop
      vertex   -7.355347e+001 1.770000e+002 3.000000e+000
      vertex   -7.328552e+001 1.760000e+002 3.000000e+000
      vertex   -7.317151e+001 1.758244e+002 3.000000e+000
    endloop
  endfacet
  facet normal 0.000000e+000 0.000000e+000 5.233641e-002
    outer loop
      vertex   -7.355347e+001 1.770000e+002 3.000000e+000
      vertex   -7.317151e+001 1.758244e+002 3.000000e+000
      vertex   -7.303976e+001 1.756617e+002 3.000000e+000
    endloop
  endfacet
  facet normal -0.000000e+000 -0.000000e+000 4.067594e-001
    outer loop
      vertex   -7.303976e+001 1.756617e+002 3.000000e+000
      vertex   -7.289173e+001 1.755137e+002 3.000000e+000
      vertex   -7.355347e+001 1.770000e+002 3.000000e+000
    endloop
  endfacet
  facet normal 0.000000e+000 0.000000e+000 5.233490e-002
    outer loop
      vertex   -7.355347e+001 1.770000e+002 3.000000e+000
      vertex   -7.289173e+001 1.755137e+002 3.000000e+000
      vertex   -7.272904e+001 1.753820e+002 3.000000e+000
    endloop
  endfacet
  facet normal 0.000000e+000 0.000000e+000 5.233152e-002
    outer loop
      vertex   -7.355347e+001 1.770000e+002 3.000000e+000
      vertex   -7.272904e+001 1.753820e+002 3.000000e+000
      vertex   -7.255347e+001 1.752679e+002 3.000000e+000
    endloop
  endfacet
  facet normal -0.000000e+000 -0.000000e+000 5.446779e-001
    outer loop
      vertex   -7.255347e+001 1.752679e+002 3.000000e+000
      vertex   -7.236694e+001 1.751729e+002 3.000000e+000
      vertex   -7.355347e+001 1.770000e+002 3.000000e+000
    endloop
  endfacet
  facet normal 0.000000e+000 0.000000e+000 5.233282e-002
    outer loop
      vertex   -7.355347e+001 1.770000e+002 3.000000e+000
      vertex   -7.236694e+001 1.751729e+002 3.000000e+000
      vertex   -7.217151e+001 1.750979e+002 3.000000e+000
    endloop
  endfacet
  facet normal 0.000000e+000 0.000000e+000 5.233517e-002
    outer loop
      vertex   -7.355347e+001 1.770000e+002 3.000000e+000
      vertex   -7.217151e+001 1.750979e+002 3.000000e+000
      vertex   -7.196930e+001 1.750437e+002 3.000000e+000
    endloop
  endfacet
  facet normal -0.000000e+000 -0.000000e+000 6.691459e-001
    outer loop
      vertex   -7.196930e+001 1.750437e+002 3.000000e+000
      vertex   -7.176253e+001 1.750110e+002 3.000000e+000
      vertex   -7.355347e+001 1.770000e+002 3.000000e+000
    endloop
  endfacet
  facet normal 0.000000e+000 0.000000e+000 5.233498e-002
    outer loop
      vertex   -7.355347e+001 1.770000e+002 3.000000e+000
      vertex   -7.176253e+001 1.750110e+002 3.000000e+000
      vertex   -7.155347e+001 1.750000e+002 3.000000e+000
    endloop
  endfacet
  facet normal -0.000000e+000 0.000000e+000 9.908484e-001
    outer loop
      vertex   -7.355347e+001 1.770000e+002 3.000000e+000
      vertex   -7.155347e+001 1.750000e+002 3.000000e+000
      vertex   -6.960721e+001 1.800000e+002 3.000000e+000
    endloop
  endfacet
  facet normal -0.000000e+000 0.000000e+000 9.318900e-001
    outer loop
      vertex   -6.960721e+001 1.800000e+002 3.000000e+000
      vertex   -7.155347e+001 1.750000e+002 3.000000e+000
      vertex   -6.640721e+001 1.800000e+002 3.000000e+000
    endloop
  endfacet
  facet normal 0.000000e+000 0.000000e+000 8.224443e-001
    outer loop
      vertex   -6.640721e+001 1.800000e+002 3.000000e+000
      vertex   -7.155347e+001 1.750000e+002 3.000000e+000
      vertex   -4.105347e+001 1.750000e+002 3.000000e+000
    endloop
  endfacet
  facet normal -0.000000e+000 0.000000e+000 1.934830e-001
    outer loop
      vertex   -6.640721e+001 1.800000e+002 3.000000e+000
      vertex   -4.105347e+001 1.750000e+002 3.000000e+000
      vertex   -4.105347e+001 1.800000e+002 3.000000e+000
    endloop
  endfacet
  facet normal -0.000000e+000 0.000000e+000 1.000000e+000
    outer loop
      vertex   -4.105347e+001 1.800000e+002 3.000000e+000
      vertex   -4.105347e+001 1.750000e+002 3.000000e+000
      vertex   -1.569974e+001 1.800000e+002 3.000000e+000
    endloop
  endfacet
  facet normal 0.000000e+000 0.000000e+000 3.980150e-001
    outer loop
      vertex   -4.105347e+001 1.800000e+002 3.000000e+000
      vertex   -1.569974e+001 1.800000e+002 3.000000e+000
      vertex   -1.569974e+001 1.910000e+002 3.000000e+000
    endloop
  endfacet
  facet normal 0.000000e+000 0.000000e+000 1.934830e-001
    outer loop
      vertex   -4.105347e+001 1.750000e+002 3.000000e+000
      vertex   -1.055347e+001 1.750000e+002 3.000000e+000
      vertex   -1.569974e+001 1.800000e+002 3.000000e+000
    endloop
  endfacet
  facet normal 0.000000e+000 0.000000e+000 9.173789e-001
    outer loop
      vertex   -6.640721e+001 2.200000e+002 3.000000e+000
      vertex   -6.640721e+001 2.090000e+002 3.000000e+000
      vertex   -4.105347e+001 2.090000e+002 3.000000e+000
    endloop
  endfacet
  facet normal 0.000000e+000 -0.000000e+000 7.960808e-001
    outer loop
      vertex   -6.960721e+001 1.800000e+002 3.000000e+000
      vertex   -6.960721e+001 1.910000e+002 3.000000e+000
      vertex   -7.355347e+001 1.770000e+002 3.000000e+000
    endloop
  endfacet
  facet normal -5.233503e-002 9.986296e-001 0.000000e+000
    outer loop
      vertex   -7.155347e+001 2.400000e+002 0.000000e+000
      vertex   -7.176253e+001 2.399890e+002 0.000000e+000
      vertex   -7.155347e+001 2.400000e+002 3.000000e+000
    endloop
  endfacet
  facet normal -5.220807e-002 9.962071e-001 0.000000e+000
    outer loop
      vertex   -7.155347e+001 2.400000e+002 3.000000e+000
      vertex   -7.176253e+001 2.399890e+002 0.000000e+000
      vertex   -7.176253e+001 2.399890e+002 3.000000e+000
    endloop
  endfacet
  facet normal -1.088864e-002 6.875674e-002 0.000000e+000
    outer loop
      vertex   -7.176253e+001 2.399890e+002 3.000000e+000
      vertex   -7.176253e+001 2.399890e+002 0.000000e+000
      vertex   -7.196930e+001 2.399563e+002 0.000000e+000
    endloop
  endfacet
  facet normal -1.560360e-001 9.852952e-001 0.000000e+000
    outer loop
      vertex   -7.176253e+001 2.399890e+002 3.000000e+000
      vertex   -7.196930e+001 2.399563e+002 0.000000e+000
      vertex   -7.196930e+001 2.399563e+002 3.000000e+000
    endloop
  endfacet
  facet normal -1.801751e-002 6.723965e-002 0.000000e+000
    outer loop
      vertex   -7.196930e+001 2.399563e+002 3.000000e+000
      vertex   -7.196930e+001 2.399563e+002 0.000000e+000
      vertex   -7.217151e+001 2.399021e+002 0.000000e+000
    endloop
  endfacet
  facet normal -2.582005e-001 9.635801e-001 0.000000e+000
    outer loop
      vertex   -7.196930e+001 2.399563e+002 3.000000e+000
      vertex   -7.217151e+001 2.399021e+002 0.000000e+000
      vertex   -7.217151e+001 2.399021e+002 3.000000e+000
    endloop
  endfacet
  facet normal -2.494849e-002 6.498682e-002 0.000000e+000
    outer loop
      vertex   -7.217151e+001 2.399021e+002 3.000000e+000
      vertex   -7.217151e+001 2.399021e+002 0.000000e+000
      vertex   -7.236694e+001 2.398271e+002 0.000000e+000
    endloop
  endfacet
  facet normal -3.575284e-001 9.313043e-001 3.469447e-018
    outer loop
      vertex   -7.217151e+001 2.399021e+002 3.000000e+000
      vertex   -7.236694e+001 2.398271e+002 0.000000e+000
      vertex   -7.236694e+001 2.398271e+002 3.000000e+000
    endloop
  endfacet
  facet normal -3.160040e-002 6.202619e-002 0.000000e+000
    outer loop
      vertex   -7.236694e+001 2.398271e+002 3.000000e+000
      vertex   -7.236694e+001 2.398271e+002 0.000000e+000
      vertex   -7.255347e+001 2.397321e+002 0.000000e+000
    endloop
  endfacet
  facet normal -4.528491e-001 8.888655e-001 0.000000e+000
    outer loop
      vertex   -7.236694e+001 2.398271e+002 3.000000e+000
      vertex   -7.255347e+001 2.397321e+002 0.000000e+000
      vertex   -7.255347e+001 2.397321e+002 3.000000e+000
    endloop
  endfacet
  facet normal -3.791744e-002 5.838057e-002 0.000000e+000
    outer loop
      vertex   -7.255347e+001 2.397321e+002 3.000000e+000
      vertex   -7.255347e+001 2.397321e+002 0.000000e+000
      vertex   -7.272904e+001 2.396180e+002 0.000000e+000
    endloop
  endfacet
  facet normal -5.433646e-001 8.366055e-001 0.000000e+000
    outer loop
      vertex   -7.255347e+001 2.397321e+002 3.000000e+000
      vertex   -7.272904e+001 2.396180e+002 0.000000e+000
      vertex   -7.272904e+001 2.396180e+002 3.000000e+000
    endloop
  endfacet
  facet normal -6.293240e-001 7.771430e-001 0.000000e+000
    outer loop
      vertex   -7.272904e+001 2.396180e+002 3.000000e+000
      vertex   -7.272904e+001 2.396180e+002 0.000000e+000
      vertex   -7.289173e+001 2.394863e+002 3.000000e+000
    endloop
  endfacet
  facet normal -4.380827e-002 5.409819e-002 0.000000e+000
    outer loop
      vertex   -7.289173e+001 2.394863e+002 3.000000e+000
      vertex   -7.272904e+001 2.396180e+002 0.000000e+000
      vertex   -7.289173e+001 2.394863e+002 0.000000e+000
    endloop
  endfacet
  facet normal -7.070885e-001 7.071250e-001 0.000000e+000
    outer loop
      vertex   -7.289173e+001 2.394863e+002 3.000000e+000
      vertex   -7.289173e+001 2.394863e+002 0.000000e+000
      vertex   -7.303976e+001 2.393383e+002 3.000000e+000
    endloop
  endfacet
  facet normal -4.922214e-002 4.922468e-002 0.000000e+000
    outer loop
      vertex   -7.303976e+001 2.393383e+002 3.000000e+000
      vertex   -7.289173e+001 2.394863e+002 0.000000e+000
      vertex   -7.303976e+001 2.393383e+002 0.000000e+000
    endloop
  endfacet
  facet normal -7.771430e-001 6.293240e-001 0.000000e+000
    outer loop
      vertex   -7.303976e+001 2.393383e+002 3.000000e+000
      vertex   -7.303976e+001 2.393383e+002 0.000000e+000
      vertex   -7.317151e+001 2.391756e+002 3.000000e+000
    endloop
  endfacet
  facet normal -5.409819e-002 4.380827e-002 0.000000e+000
    outer loop
      vertex   -7.317151e+001 2.391756e+002 3.000000e+000
      vertex   -7.303976e+001 2.393383e+002 0.000000e+000
      vertex   -7.317151e+001 2.391756e+002 0.000000e+000
    endloop
  endfacet
  facet normal -5.838058e-002 3.791237e-002 0.000000e+000
    outer loop
      vertex   -7.317151e+001 2.391756e+002 3.000000e+000
      vertex   -7.317151e+001 2.391756e+002 0.000000e+000
      vertex   -7.328552e+001 2.390000e+002 0.000000e+000
    endloop
  endfacet
  facet normal -8.366389e-001 5.433136e-001 0.000000e+000
    outer loop
      vertex   -7.317151e+001 2.391756e+002 3.000000e+000
      vertex   -7.328552e+001 2.390000e+002 0.000000e+000
      vertex   -7.328552e+001 2.390000e+002 3.000000e+000
    endloop
  endfacet
  facet normal -6.202366e-002 3.160294e-002 0.000000e+000
    outer loop
      vertex   -7.328552e+001 2.390000e+002 3.000000e+000
      vertex   -7.328552e+001 2.390000e+002 0.000000e+000
      vertex   -7.338056e+001 2.388135e+002 0.000000e+000
    endloop
  endfacet
  facet normal -8.888434e-001 4.528927e-001 -3.469447e-018
    outer loop
      vertex   -7.328552e+001 2.390000e+002 3.000000e+000
      vertex   -7.338056e+001 2.388135e+002 0.000000e+000
      vertex   -7.338056e+001 2.388135e+002 3.000000e+000
    endloop
  endfacet
  facet normal -6.499188e-002 2.494848e-002 0.000000e+000
    outer loop
      vertex   -7.338056e+001 2.388135e+002 3.000000e+000
      vertex   -7.338056e+001 2.388135e+002 0.000000e+000
      vertex   -7.345559e+001 2.386180e+002 0.000000e+000
    endloop
  endfacet
  facet normal -9.313133e-001 3.575039e-001 0.000000e+000
    outer loop
      vertex   -7.338056e+001 2.388135e+002 3.000000e+000
      vertex   -7.345559e+001 2.386180e+002 0.000000e+000
      vertex   -7.345559e+001 2.386180e+002 3.000000e+000
    endloop
  endfacet
  facet normal -6.723965e-002 1.801497e-002 0.000000e+000
    outer loop
      vertex   -7.345559e+001 2.386180e+002 3.000000e+000
      vertex   -7.345559e+001 2.386180e+002 0.000000e+000
      vertex   -7.350977e+001 2.384158e+002 0.000000e+000
    endloop
  endfacet
  facet normal -9.635893e-001 2.581666e-001 0.000000e+000
    outer loop
      vertex   -7.345559e+001 2.386180e+002 3.000000e+000
      vertex   -7.350977e+001 2.384158e+002 0.000000e+000
      vertex   -7.350977e+001 2.384158e+002 3.000000e+000
    endloop
  endfacet
  facet normal -6.875169e-002 1.089118e-002 0.000000e+000
    outer loop
      vertex   -7.350977e+001 2.384158e+002 3.000000e+000
      vertex   -7.350977e+001 2.384158e+002 0.000000e+000
      vertex   -7.354252e+001 2.382091e+002 0.000000e+000
    endloop
  endfacet
  facet normal -9.852881e-001 1.560827e-001 0.000000e+000
    outer loop
      vertex   -7.350977e+001 2.384158e+002 3.000000e+000
      vertex   -7.354252e+001 2.382091e+002 0.000000e+000
      vertex   -7.354252e+001 2.382091e+002 3.000000e+000
    endloop
  endfacet
  facet normal -6.951784e-002 3.643078e-003 0.000000e+000
    outer loop
      vertex   -7.354252e+001 2.382091e+002 3.000000e+000
      vertex   -7.354252e+001 2.382091e+002 0.000000e+000
      vertex   -7.355347e+001 2.380000e+002 0.000000e+000
    endloop
  endfacet
  facet normal -9.962071e-001 5.220617e-002 4.336809e-019
    outer loop
      vertex   -7.354252e+001 2.382091e+002 3.000000e+000
      vertex   -7.355347e+001 2.380000e+002 0.000000e+000
      vertex   -7.355347e+001 2.380000e+002 3.000000e+000
    endloop
  endfacet
  facet normal 0.000000e+000 1.000000e+000 0.000000e+000
    outer loop
      vertex   -7.155347e+001 2.400000e+002 0.000000e+000
      vertex   -7.155347e+001 2.400000e+002 3.000000e+000
      vertex   -4.105347e+001 2.400000e+002 0.000000e+000
    endloop
  endfacet
  facet normal 0.000000e+000 9.951974e-001 -0.000000e+000
    outer loop
      vertex   -4.105347e+001 2.400000e+002 0.000000e+000
      vertex   -7.155347e+001 2.400000e+002 3.000000e+000
      vertex   -4.105347e+001 2.400000e+002 3.000000e+000
    endloop
  endfacet
  facet normal 0.000000e+000 1.000000e+000 0.000000e+000
    outer loop
      vertex   -4.105347e+001 2.400000e+002 0.000000e+000
      vertex   -4.105347e+001 2.400000e+002 3.000000e+000
      vertex   -1.055347e+001 2.400000e+002 0.000000e+000
    endloop
  endfacet
  facet normal 0.000000e+000 9.951974e-001 -0.000000e+000
    outer loop
      vertex   -1.055347e+001 2.400000e+002 0.000000e+000
      vertex   -4.105347e+001 2.400000e+002 3.000000e+000
      vertex   -1.055347e+001 2.400000e+002 3.000000e+000
    endloop
  endfacet
  facet normal 9.986295e-001 5.233767e-002 -0.000000e+000
    outer loop
      vertex   -8.553473e+000 2.380000e+002 0.000000e+000
      vertex   -8.564429e+000 2.382091e+002 0.000000e+000
      vertex   -8.553473e+000 2.380000e+002 3.000000e+000
    endloop
  endfacet
  facet normal 9.962068e-001 5.221070e-002 0.000000e+000
    outer loop
      vertex   -8.553473e+000 2.380000e+002 3.000000e+000
      vertex   -8.564429e+000 2.382091e+002 0.000000e+000
      vertex   -8.564429e+000 2.382091e+002 3.000000e+000
    endloop
  endfacet
  facet normal 6.875169e-002 1.088960e-002 0.000000e+000
    outer loop
      vertex   -8.564429e+000 2.382091e+002 3.000000e+000
      vertex   -8.564429e+000 2.382091e+002 0.000000e+000
      vertex   -8.597178e+000 2.384158e+002 0.000000e+000
    endloop
  endfacet
  facet normal 9.852917e-001 1.560606e-001 0.000000e+000
    outer loop
      vertex   -8.564429e+000 2.382091e+002 3.000000e+000
      vertex   -8.597178e+000 2.384158e+002 0.000000e+000
      vertex   -8.597178e+000 2.384158e+002 3.000000e+000
    endloop
  endfacet
  facet normal 6.723965e-002 1.801687e-002 0.000000e+000
    outer loop
      vertex   -8.597178e+000 2.384158e+002 3.000000e+000
      vertex   -8.597178e+000 2.384158e+002 0.000000e+000
      vertex   -8.651360e+000 2.386180e+002 0.000000e+000
    endloop
  endfacet
  facet normal 9.635825e-001 2.581920e-001 3.469447e-018
    outer loop
      vertex   -8.597178e+000 2.384158e+002 3.000000e+000
      vertex   -8.651360e+000 2.386180e+002 0.000000e+000
      vertex   -8.651360e+000 2.386180e+002 3.000000e+000
    endloop
  endfacet
  facet normal 6.499188e-002 2.494689e-002 0.000000e+000
    outer loop
      vertex   -8.651360e+000 2.386180e+002 3.000000e+000
      vertex   -8.651360e+000 2.386180e+002 0.000000e+000
      vertex   -8.726382e+000 2.388135e+002 0.000000e+000
    endloop
  endfacet
  facet normal 9.313210e-001 3.574841e-001 -3.469447e-018
    outer loop
      vertex   -8.651360e+000 2.386180e+002 3.000000e+000
      vertex   -8.726382e+000 2.388135e+002 0.000000e+000
      vertex   -8.726382e+000 2.388135e+002 3.000000e+000
    endloop
  endfacet
  facet normal 6.202366e-002 3.160326e-002 0.000000e+000
    outer loop
      vertex   -8.726382e+000 2.388135e+002 3.000000e+000
      vertex   -8.726382e+000 2.388135e+002 0.000000e+000
      vertex   -8.821423e+000 2.390000e+002 0.000000e+000
    endloop
  endfacet
  facet normal 8.888415e-001 4.528963e-001 3.469447e-018
    outer loop
      vertex   -8.726382e+000 2.388135e+002 3.000000e+000
      vertex   -8.821423e+000 2.390000e+002 0.000000e+000
      vertex   -8.821423e+000 2.390000e+002 3.000000e+000
    endloop
  endfacet
  facet normal 5.838058e-002 3.791332e-002 0.000000e+000
    outer loop
      vertex   -8.821423e+000 2.390000e+002 3.000000e+000
      vertex   -8.821423e+000 2.390000e+002 0.000000e+000
      vertex   -8.935439e+000 2.391756e+002 0.000000e+000
    endloop
  endfacet
  facet normal 8.366327e-001 5.433232e-001 6.938894e-018
    outer loop
      vertex   -8.821423e+000 2.390000e+002 3.000000e+000
      vertex   -8.935439e+000 2.391756e+002 0.000000e+000
      vertex   -8.935439e+000 2.391756e+002 3.000000e+000
    endloop
  endfacet
  facet normal 7.771430e-001 6.293240e-001 0.000000e+000
    outer loop
      vertex   -8.935439e+000 2.391756e+002 3.000000e+000
      vertex   -8.935439e+000 2.391756e+002 0.000000e+000
      vertex   -9.067183e+000 2.393383e+002 3.000000e+000
    endloop
  endfacet
  facet normal 5.409819e-002 4.380827e-002 0.000000e+000
    outer loop
      vertex   -9.067183e+000 2.393383e+002 3.000000e+000
      vertex   -8.935439e+000 2.391756e+002 0.000000e+000
      vertex   -9.067183e+000 2.393383e+002 0.000000e+000
    endloop
  endfacet
  facet normal 7.071000e-001 7.071136e-001 0.000000e+000
    outer loop
      vertex   -9.067183e+000 2.393383e+002 3.000000e+000
      vertex   -9.067183e+000 2.393383e+002 0.000000e+000
      vertex   -9.215212e+000 2.394863e+002 3.000000e+000
    endloop
  endfacet
  facet normal 4.922215e-002 4.922310e-002 0.000000e+000
    outer loop
      vertex   -9.215212e+000 2.394863e+002 3.000000e+000
      vertex   -9.067183e+000 2.393383e+002 0.000000e+000
      vertex   -9.215212e+000 2.394863e+002 0.000000e+000
    endloop
  endfacet
  facet normal 6.293218e-001 7.771448e-001 0.000000e+000
    outer loop
      vertex   -9.215212e+000 2.394863e+002 3.000000e+000
      vertex   -9.215212e+000 2.394863e+002 0.000000e+000
      vertex   -9.377902e+000 2.396180e+002 3.000000e+000
    endloop
  endfacet
  facet normal 4.380826e-002 5.409850e-002 0.000000e+000
    outer loop
      vertex   -9.377902e+000 2.396180e+002 3.000000e+000
      vertex   -9.215212e+000 2.394863e+002 0.000000e+000
      vertex   -9.377902e+000 2.396180e+002 0.000000e+000
    endloop
  endfacet
  facet normal 3.791743e-002 5.838152e-002 0.000000e+000
    outer loop
      vertex   -9.377902e+000 2.396180e+002 3.000000e+000
      vertex   -9.377902e+000 2.396180e+002 0.000000e+000
      vertex   -9.553473e+000 2.397321e+002 0.000000e+000
    endloop
  endfacet
  facet normal 5.433584e-001 8.366095e-001 0.000000e+000
    outer loop
      vertex   -9.377902e+000 2.396180e+002 3.000000e+000
      vertex   -9.553473e+000 2.397321e+002 0.000000e+000
      vertex   -9.553473e+000 2.397321e+002 3.000000e+000
    endloop
  endfacet
  facet normal 3.160040e-002 6.202492e-002 0.000000e+000
    outer loop
      vertex   -9.553473e+000 2.397321e+002 3.000000e+000
      vertex   -9.553473e+000 2.397321e+002 0.000000e+000
      vertex   -9.740000e+000 2.398271e+002 0.000000e+000
    endloop
  endfacet
  facet normal 4.528565e-001 8.888618e-001 0.000000e+000
    outer loop
      vertex   -9.553473e+000 2.397321e+002 3.000000e+000
      vertex   -9.740000e+000 2.398271e+002 0.000000e+000
      vertex   -9.740000e+000 2.398271e+002 3.000000e+000
    endloop
  endfacet
  facet normal 2.494849e-002 6.498840e-002 0.000000e+000
    outer loop
      vertex   -9.740000e+000 2.398271e+002 3.000000e+000
      vertex   -9.740000e+000 2.398271e+002 0.000000e+000
      vertex   -9.935439e+000 2.399021e+002 0.000000e+000
    endloop
  endfacet
  facet normal 3.575207e-001 9.313071e-001 0.000000e+000
    outer loop
      vertex   -9.740000e+000 2.398271e+002 3.000000e+000
      vertex   -9.935439e+000 2.399021e+002 0.000000e+000
      vertex   -9.935439e+000 2.399021e+002 3.000000e+000
    endloop
  endfacet
  facet normal 1.801751e-002 6.723996e-002 0.000000e+000
    outer loop
      vertex   -9.935439e+000 2.399021e+002 3.000000e+000
      vertex   -9.935439e+000 2.399021e+002 0.000000e+000
      vertex   -1.013765e+001 2.399563e+002 0.000000e+000
    endloop
  endfacet
  facet normal 2.581994e-001 9.635804e-001 0.000000e+000
    outer loop
      vertex   -9.935439e+000 2.399021e+002 3.000000e+000
      vertex   -1.013765e+001 2.399563e+002 0.000000e+000
      vertex   -1.013765e+001 2.399563e+002 3.000000e+000
    endloop
  endfacet
  facet normal 1.088864e-002 6.875485e-002 0.000000e+000
    outer loop
      vertex   -1.013765e+001 2.399563e+002 3.000000e+000
      vertex   -1.013765e+001 2.399563e+002 0.000000e+000
      vertex   -1.034442e+001 2.399890e+002 0.000000e+000
    endloop
  endfacet
  facet normal 1.560402e-001 9.852947e-001 0.000000e+000
    outer loop
      vertex   -1.013765e+001 2.399563e+002 3.000000e+000
      vertex   -1.034442e+001 2.399890e+002 0.000000e+000
      vertex   -1.034442e+001 2.399890e+002 3.000000e+000
    endloop
  endfacet
  facet normal 3.643078e-003 6.951657e-002 0.000000e+000
    outer loop
      vertex   -1.034442e+001 2.399890e+002 3.000000e+000
      vertex   -1.034442e+001 2.399890e+002 0.000000e+000
      vertex   -1.055347e+001 2.400000e+002 0.000000e+000
    endloop
  endfacet
  facet normal 5.220712e-002 9.962071e-001 4.336809e-019
    outer loop
      vertex   -1.034442e+001 2.399890e+002 3.000000e+000
      vertex   -1.055347e+001 2.400000e+002 0.000000e+000
      vertex   -1.055347e+001 2.400000e+002 3.000000e+000
    endloop
  endfacet
  facet normal 0.000000e+000 -1.000000e+000 0.000000e+000
    outer loop
      vertex   -1.569974e+001 1.910000e+002 3.000000e+000
      vertex   -1.569974e+001 1.910000e+002 0.000000e+000
      vertex   -1.249973e+001 1.910000e+002 3.000000e+000
    endloop
  endfacet
  facet normal 0.000000e+000 -7.295373e-001 -0.000000e+000
    outer loop
      vertex   -1.249973e+001 1.910000e+002 3.000000e+000
      vertex   -1.569974e+001 1.910000e+002 0.000000e+000
      vertex   -1.249973e+001 1.910000e+002 0.000000e+000
    endloop
  endfacet
  facet normal -1.000000e+000 -0.000000e+000 -0.000000e+000
    outer loop
      vertex   -1.249973e+001 1.910000e+002 3.000000e+000
      vertex   -1.249973e+001 1.910000e+002 0.000000e+000
      vertex   -1.249973e+001 1.800000e+002 3.000000e+000
    endloop
  endfacet
  facet normal -9.647638e-001 0.000000e+000 0.000000e+000
    outer loop
      vertex   -1.249973e+001 1.800000e+002 3.000000e+000
      vertex   -1.249973e+001 1.910000e+002 0.000000e+000
      vertex   -1.249973e+001 1.800000e+002 0.000000e+000
    endloop
  endfacet
  facet normal 0.000000e+000 1.000000e+000 0.000000e+000
    outer loop
      vertex   -1.249973e+001 1.800000e+002 3.000000e+000
      vertex   -1.249973e+001 1.800000e+002 0.000000e+000
      vertex   -1.569974e+001 1.800000e+002 3.000000e+000
    endloop
  endfacet
  facet normal 0.000000e+000 7.295373e-001 0.000000e+000
    outer loop
      vertex   -1.569974e+001 1.800000e+002 3.000000e+000
      vertex   -1.249973e+001 1.800000e+002 0.000000e+000
      vertex   -1.569974e+001 1.800000e+002 0.000000e+000
    endloop
  endfacet
  facet normal 1.000000e+000 -0.000000e+000 0.000000e+000
    outer loop
      vertex   -1.569974e+001 1.800000e+002 3.000000e+000
      vertex   -1.569974e+001 1.800000e+002 0.000000e+000
      vertex   -1.569974e+001 1.910000e+002 3.000000e+000
    endloop
  endfacet
  facet normal 9.647638e-001 0.000000e+000 0.000000e+000
    outer loop
      vertex   -1.569974e+001 1.910000e+002 3.000000e+000
      vertex   -1.569974e+001 1.800000e+002 0.000000e+000
      vertex   -1.569974e+001 1.910000e+002 0.000000e+000
    endloop
  endfacet
  facet normal 0.000000e+000 -1.000000e+000 0.000000e+000
    outer loop
      vertex   -1.569974e+001 2.200000e+002 3.000000e+000
      vertex   -1.569974e+001 2.200000e+002 0.000000e+000
      vertex   -1.249973e+001 2.200000e+002 3.000000e+000
    endloop
  endfacet
  facet normal 0.000000e+000 -7.295373e-001 -0.000000e+000
    outer loop
      vertex   -1.249973e+001 2.200000e+002 3.000000e+000
      vertex   -1.569974e+001 2.200000e+002 0.000000e+000
      vertex   -1.249973e+001 2.200000e+002 0.000000e+000
    endloop
  endfacet
  facet normal -1.000000e+000 -0.000000e+000 -0.000000e+000
    outer loop
      vertex   -1.249973e+001 2.200000e+002 3.000000e+000
      vertex   -1.249973e+001 2.200000e+002 0.000000e+000
      vertex   -1.249973e+001 2.090000e+002 3.000000e+000
    endloop
  endfacet
  facet normal -9.647638e-001 0.000000e+000 0.000000e+000
    outer loop
      vertex   -1.249973e+001 2.090000e+002 3.000000e+000
      vertex   -1.249973e+001 2.200000e+002 0.000000e+000
      vertex   -1.249973e+001 2.090000e+002 0.000000e+000
    endloop
  endfacet
  facet normal 0.000000e+000 1.000000e+000 0.000000e+000
    outer loop
      vertex   -1.249973e+001 2.090000e+002 3.000000e+000
      vertex   -1.249973e+001 2.090000e+002 0.000000e+000
      vertex   -1.569974e+001 2.090000e+002 3.000000e+000
    endloop
  endfacet
  facet normal 0.000000e+000 7.295373e-001 0.000000e+000
    outer loop
      vertex   -1.569974e+001 2.090000e+002 3.000000e+000
      vertex   -1.249973e+001 2.090000e+002 0.000000e+000
      vertex   -1.569974e+001 2.090000e+002 0.000000e+000
    endloop
  endfacet
  facet normal 1.000000e+000 -0.000000e+000 0.000000e+000
    outer loop
      vertex   -1.569974e+001 2.090000e+002 3.000000e+000
      vertex   -1.569974e+001 2.090000e+002 0.000000e+000
      vertex   -1.569974e+001 2.200000e+002 3.000000e+000
    endloop
  endfacet
  facet normal 9.647638e-001 0.000000e+000 0.000000e+000
    outer loop
      vertex   -1.569974e+001 2.200000e+002 3.000000e+000
      vertex   -1.569974e+001 2.090000e+002 0.000000e+000
      vertex   -1.569974e+001 2.200000e+002 0.000000e+000
    endloop
  endfacet
  facet normal 0.000000e+000 -1.000000e+000 0.000000e+000
    outer loop
      vertex   -6.960721e+001 1.910000e+002 3.000000e+000
      vertex   -6.960721e+001 1.910000e+002 0.000000e+000
      vertex   -6.640721e+001 1.910000e+002 3.000000e+000
    endloop
  endfacet
  facet normal 0.000000e+000 -7.295369e-001 -0.000000e+000
    outer loop
      vertex   -6.640721e+001 1.910000e+002 3.000000e+000
      vertex   -6.960721e+001 1.910000e+002 0.000000e+000
      vertex   -6.640721e+001 1.910000e+002 0.000000e+000
    endloop
  endfacet
  facet normal -1.000000e+000 -0.000000e+000 -0.000000e+000
    outer loop
      vertex   -6.640721e+001 1.910000e+002 3.000000e+000
      vertex   -6.640721e+001 1.910000e+002 0.000000e+000
      vertex   -6.640721e+001 1.800000e+002 3.000000e+000
    endloop
  endfacet
  facet normal -9.647638e-001 0.000000e+000 0.000000e+000
    outer loop
      vertex   -6.640721e+001 1.800000e+002 3.000000e+000
      vertex   -6.640721e+001 1.910000e+002 0.000000e+000
      vertex   -6.640721e+001 1.800000e+002 0.000000e+000
    endloop
  endfacet
  facet normal 0.000000e+000 1.000000e+000 0.000000e+000
    outer loop
      vertex   -6.640721e+001 1.800000e+002 3.000000e+000
      vertex   -6.640721e+001 1.800000e+002 0.000000e+000
      vertex   -6.960721e+001 1.800000e+002 3.000000e+000
    endloop
  endfacet
  facet normal 0.000000e+000 7.295369e-001 0.000000e+000
    outer loop
      vertex   -6.960721e+001 1.800000e+002 3.000000e+000
      vertex   -6.640721e+001 1.800000e+002 0.000000e+000
      vertex   -6.960721e+001 1.800000e+002 0.000000e+000
    endloop
  endfacet
  facet normal 1.000000e+000 -0.000000e+000 0.000000e+000
    outer loop
      vertex   -6.960721e+001 1.800000e+002 3.000000e+000
      vertex   -6.960721e+001 1.800000e+002 0.000000e+000
      vertex   -6.960721e+001 1.910000e+002 3.000000e+000
    endloop
  endfacet
  facet normal 9.647638e-001 0.000000e+000 0.000000e+000
    outer loop
      vertex   -6.960721e+001 1.910000e+002 3.000000e+000
      vertex   -6.960721e+001 1.800000e+002 0.000000e+000
      vertex   -6.960721e+001 1.910000e+002 0.000000e+000
    endloop
  endfacet
  facet normal 0.000000e+000 -1.000000e+000 0.000000e+000
    outer loop
      vertex   -6.960721e+001 2.200000e+002 3.000000e+000
      vertex   -6.960721e+001 2.200000e+002 0.000000e+000
      vertex   -6.640721e+001 2.200000e+002 3.000000e+000
    endloop
  endfacet
  facet normal 0.000000e+000 -7.295369e-001 -0.000000e+000
    outer loop
      vertex   -6.640721e+001 2.200000e+002 3.000000e+000
      vertex   -6.960721e+001 2.200000e+002 0.000000e+000
      vertex   -6.640721e+001 2.200000e+002 0.000000e+000
    endloop
  endfacet
  facet normal -1.000000e+000 -0.000000e+000 -0.000000e+000
    outer loop
      vertex   -6.640721e+001 2.200000e+002 3.000000e+000
      vertex   -6.640721e+001 2.200000e+002 0.000000e+000
      vertex   -6.640721e+001 2.090000e+002 3.000000e+000
    endloop
  endfacet
  facet normal -9.647638e-001 0.000000e+000 0.000000e+000
    outer loop
      vertex   -6.640721e+001 2.090000e+002 3.000000e+000
      vertex   -6.640721e+001 2.200000e+002 0.000000e+000
      vertex   -6.640721e+001 2.090000e+002 0.000000e+000
    endloop
  endfacet
  facet normal 0.000000e+000 1.000000e+000 0.000000e+000
    outer loop
      vertex   -6.640721e+001 2.090000e+002 3.000000e+000
      vertex   -6.640721e+001 2.090000e+002 0.000000e+000
      vertex   -6.960721e+001 2.090000e+002 3.000000e+000
    endloop
  endfacet
  facet normal 0.000000e+000 7.295369e-001 0.000000e+000
    outer loop
      vertex   -6.960721e+001 2.090000e+002 3.000000e+000
      vertex   -6.640721e+001 2.090000e+002 0.000000e+000
      vertex   -6.960721e+001 2.090000e+002 0.000000e+000
    endloop
  endfacet
  facet normal 1.000000e+000 -0.000000e+000 0.000000e+000
    outer loop
      vertex   -6.960721e+001 2.090000e+002 3.000000e+000
      vertex   -6.960721e+001 2.090000e+002 0.000000e+000
      vertex   -6.960721e+001 2.200000e+002 3.000000e+000
    endloop
  endfacet
  facet normal 9.647638e-001 0.000000e+000 0.000000e+000
    outer loop
      vertex   -6.960721e+001 2.200000e+002 3.000000e+000
      vertex   -6.960721e+001 2.090000e+002 0.000000e+000
      vertex   -6.960721e+001 2.200000e+002 0.000000e+000
    endloop
  endfacet
  facet normal 0.000000e+000 -1.000000e+000 0.000000e+000
    outer loop
      vertex   -1.055347e+001 1.750000e+002 0.000000e+000
      vertex   -1.055347e+001 1.750000e+002 3.000000e+000
      vertex   -4.105347e+001 1.750000e+002 0.000000e+000
    endloop
  endfacet
  facet normal 0.000000e+000 -9.951974e-001 0.000000e+000
    outer loop
      vertex   -4.105347e+001 1.750000e+002 0.000000e+000
      vertex   -1.055347e+001 1.750000e+002 3.000000e+000
      vertex   -4.105347e+001 1.750000e+002 3.000000e+000
    endloop
  endfacet
  facet normal 0.000000e+000 -1.000000e+000 0.000000e+000
    outer loop
      vertex   -4.105347e+001 1.750000e+002 0.000000e+000
      vertex   -4.105347e+001 1.750000e+002 3.000000e+000
      vertex   -7.155347e+001 1.750000e+002 0.000000e+000
    endloop
  endfacet
  facet normal 0.000000e+000 -9.951974e-001 0.000000e+000
    outer loop
      vertex   -7.155347e+001 1.750000e+002 0.000000e+000
      vertex   -4.105347e+001 1.750000e+002 3.000000e+000
      vertex   -7.155347e+001 1.750000e+002 3.000000e+000
    endloop
  endfacet
endsolid
